# Blender v3.3.1 OBJ File: 'gallowsassetv2.blend'
# www.blender.org
mtllib gallows.mtl
o gallows_Cube.026
v 1.688433 0.734353 -4.282083
v 1.688433 0.641417 -4.282083
v 1.688433 0.734353 5.049119
v 1.688433 0.641417 5.049119
v -1.918944 0.734353 -5.829292
v -1.918944 0.641417 -5.829292
v -1.918944 0.734353 3.538476
v -1.918944 0.641417 3.538476
v 1.509883 0.734353 -4.106384
v 1.509883 0.641417 -4.106384
v 1.509883 0.734353 5.054055
v 1.509883 0.641417 5.054055
v -1.740394 0.734353 -5.835903
v -1.740394 0.641417 -5.835903
v -1.740394 0.734353 3.367414
v -1.740394 0.641417 3.367414
v -0.118110 0.641417 -4.282083
v -0.119595 0.734353 -4.282083
v -0.109491 0.641417 -4.106384
v -0.102345 0.734353 -4.106384
v -0.098665 0.641417 3.367414
v -0.098690 0.641417 3.538476
v -0.100936 0.734353 3.367414
v -0.097852 0.734353 3.538476
v -1.918944 0.641417 -5.652666
v -1.918944 0.734353 -5.652666
v -1.740394 0.641417 -5.662398
v -1.740394 0.734353 -5.662398
v -0.099998 0.734353 -5.835903
v -0.099998 0.641417 -5.835903
v -0.099998 0.734353 -5.662398
v -0.099998 0.641417 -5.662398
v 1.688433 0.734353 4.871092
v 1.688433 0.641417 4.871092
v 1.509883 0.734353 4.878916
v 1.509883 0.641417 4.878916
v -0.109096 0.734353 5.054055
v -0.109096 0.641417 5.054055
v -0.109096 0.734353 4.878916
v -0.109096 0.641417 4.878916
v 1.514887 -1.411831 -4.110685
v 1.514887 0.655299 -4.110685
v 1.514887 -1.411831 -4.272630
v 1.514887 0.655299 -4.272630
v 1.676832 -1.411831 -4.110685
v 1.676832 0.655299 -4.110685
v 1.676832 -1.411831 -4.272630
v 1.676832 0.655299 -4.272630
v 1.514979 -0.480898 -4.175769
v 1.182661 -0.059130 -4.175769
v 1.514979 -0.480898 -4.270229
v 1.182661 -0.059130 -4.270229
v 1.515007 -0.354891 -4.175769
v 1.291003 -0.058658 -4.175769
v 1.515007 -0.354891 -4.270229
v 1.291003 -0.058658 -4.270229
v -1.752691 -1.411831 -4.272840
v -1.752691 0.655299 -4.272840
v -1.752691 -1.411831 -4.110895
v -1.752691 0.655299 -4.110895
v -1.914635 -1.411831 -4.272840
v -1.914635 0.655299 -4.272840
v -1.914635 -1.411831 -4.110895
v -1.914635 0.655299 -4.110895
v -1.752782 -0.480898 -4.207756
v -1.420465 -0.059130 -4.207756
v -1.752782 -0.480898 -4.113296
v -1.420465 -0.059130 -4.113296
v -1.752811 -0.354891 -4.207756
v -1.528807 -0.058658 -4.207756
v -1.752811 -0.354891 -4.113296
v -1.528807 -0.058658 -4.113296
v 1.514887 -1.411831 3.503557
v 1.514887 0.655299 3.503557
v 1.514887 -1.411831 3.341613
v 1.514887 0.655299 3.341613
v 1.676832 -1.411831 3.503557
v 1.676832 0.655299 3.503557
v 1.676832 -1.411831 3.341613
v 1.676832 0.655299 3.341613
v 1.514979 -0.480898 3.438473
v 1.182661 -0.059130 3.438473
v 1.514979 -0.480898 3.344013
v 1.182661 -0.059130 3.344013
v 1.515007 -0.354891 3.438473
v 1.291003 -0.058658 3.438473
v 1.515007 -0.354891 3.344013
v 1.291003 -0.058658 3.344013
v -1.752691 -1.411831 3.341403
v -1.752691 0.655299 3.341403
v -1.752691 -1.411831 3.503347
v -1.752691 0.655299 3.503347
v -1.914635 -1.411831 3.341403
v -1.914635 0.655299 3.341403
v -1.914635 -1.411831 3.503347
v -1.914635 0.655299 3.503347
v -1.752782 -0.480898 3.406487
v -1.420465 -0.059130 3.406487
v -1.752782 -0.480898 3.500947
v -1.420465 -0.059130 3.500947
v -1.752811 -0.354891 3.406487
v -1.528807 -0.058658 3.406487
v -1.752811 -0.354891 3.500947
v -1.528807 -0.058658 3.500947
v 1.514887 -1.411831 -0.283631
v 1.514887 0.655299 -0.283631
v 1.514887 -1.411831 -0.445576
v 1.514887 0.655299 -0.445576
v 1.676832 -1.411831 -0.283631
v 1.676832 0.655299 -0.283631
v 1.676832 -1.411831 -0.445576
v 1.676832 0.655299 -0.445576
v 1.514979 -0.480898 -0.322834
v 1.182661 -0.059130 -0.322834
v 1.514979 -0.480898 -0.417294
v 1.182661 -0.059130 -0.417294
v 1.515007 -0.354891 -0.322834
v 1.291003 -0.058658 -0.322834
v 1.515007 -0.354891 -0.417294
v 1.291003 -0.058658 -0.417294
v -1.752691 -1.411831 -0.445786
v -1.752691 0.655299 -0.445786
v -1.752691 -1.411831 -0.283841
v -1.752691 0.655299 -0.283841
v -1.914635 -1.411831 -0.445786
v -1.914635 0.655299 -0.445786
v -1.914635 -1.411831 -0.283841
v -1.914635 0.655299 -0.283841
v -1.752782 -0.480898 -0.354820
v -1.420465 -0.059130 -0.354820
v -1.752782 -0.480898 -0.260360
v -1.420465 -0.059130 -0.260360
v -1.752811 -0.354891 -0.354820
v -1.528807 -0.058658 -0.354820
v -1.752811 -0.354891 -0.260360
v -1.528807 -0.058658 -0.260360
v 1.514887 -1.411831 -2.250277
v 1.514887 0.655299 -2.250277
v 1.514887 -1.411831 -2.412221
v 1.514887 0.655299 -2.412221
v 1.676832 -1.411831 -2.250277
v 1.676832 0.655299 -2.250277
v 1.676832 -1.411831 -2.412221
v 1.676832 0.655299 -2.412221
v 1.514979 -0.480898 -2.315361
v 1.182661 -0.059130 -2.315361
v 1.514979 -0.480898 -2.409820
v 1.182661 -0.059130 -2.409820
v 1.515007 -0.354891 -2.315360
v 1.291003 -0.058658 -2.315361
v 1.515007 -0.354891 -2.409820
v 1.291003 -0.058658 -2.409820
v -1.752691 -1.411831 -2.412431
v -1.752691 0.655299 -2.412431
v -1.752691 -1.411831 -2.250486
v -1.752691 0.655299 -2.250486
v -1.914635 -1.411831 -2.412431
v -1.914635 0.655299 -2.412431
v -1.914635 -1.411831 -2.250486
v -1.914635 0.655299 -2.250486
v -1.752782 -0.480898 -2.347347
v -1.420465 -0.059130 -2.347347
v -1.752782 -0.480898 -2.252887
v -1.420465 -0.059130 -2.252887
v -1.752811 -0.354891 -2.347347
v -1.528807 -0.058658 -2.347347
v -1.752811 -0.354891 -2.252887
v -1.528807 -0.058658 -2.252887
v 1.514887 -1.411831 1.663204
v 1.514887 0.655299 1.663204
v 1.514887 -1.411831 1.501259
v 1.514887 0.655299 1.501259
v 1.676832 -1.411831 1.663204
v 1.676832 0.655299 1.663204
v 1.676832 -1.411831 1.501259
v 1.676832 0.655299 1.501259
v 1.514979 -0.480898 1.598120
v 1.182661 -0.059130 1.598120
v 1.514979 -0.480898 1.503660
v 1.182661 -0.059130 1.503660
v 1.515007 -0.354891 1.598120
v 1.291003 -0.058658 1.598120
v 1.515007 -0.354891 1.503660
v 1.291003 -0.058658 1.503660
v -1.752691 -1.411831 1.501600
v -1.752691 0.655299 1.501600
v -1.752691 -1.411831 1.663545
v -1.752691 0.655299 1.663545
v -1.914635 -1.411831 1.501600
v -1.914635 0.655299 1.501600
v -1.914635 -1.411831 1.663545
v -1.914635 0.655299 1.663545
v -1.752782 -0.480898 1.566684
v -1.420465 -0.059130 1.566684
v -1.752782 -0.480898 1.661144
v -1.420465 -0.059130 1.661144
v -1.752811 -0.354891 1.566684
v -1.528807 -0.058658 1.566684
v -1.752811 -0.354891 1.661144
v -1.528807 -0.058658 1.661144
v -0.033465 2.292361 1.662051
v -0.033465 2.714128 1.994369
v -0.168814 2.292361 1.662051
v -0.168814 2.714128 1.994369
v -0.033465 2.418367 1.662023
v -0.033465 2.714600 1.886026
v -0.168814 2.418367 1.662023
v -0.168814 2.714600 1.886026
v -0.033465 2.292361 -0.273085
v -0.033465 2.714128 0.059232
v -0.168814 2.292361 -0.273085
v -0.168814 2.714128 0.059232
v -0.033465 2.418367 -0.273114
v -0.033465 2.714600 -0.049110
v -0.168814 2.418367 -0.273114
v -0.168814 2.714600 -0.049110
v -0.033465 2.292361 -2.243189
v -0.033465 2.714128 -1.910872
v -0.168814 2.292361 -2.243189
v -0.168814 2.714128 -1.910872
v -0.033465 2.418367 -2.243218
v -0.033465 2.714600 -2.019214
v -0.168814 2.418367 -2.243218
v -0.168814 2.714600 -2.019214
v -0.033465 2.292361 -4.101493
v -0.033465 2.714128 -3.769175
v -0.168814 2.292361 -4.101493
v -0.168814 2.714128 -3.769175
v -0.033465 2.418367 -4.101521
v -0.033465 2.714600 -3.877517
v -0.168814 2.418367 -4.101521
v -0.168814 2.714600 -3.877517
v -0.168814 2.292361 -2.410201
v -0.168814 2.714128 -2.742519
v -0.033465 2.292361 -2.410201
v -0.033466 2.714128 -2.742519
v -0.168814 2.418367 -2.410173
v -0.168814 2.714600 -2.634176
v -0.033466 2.418367 -2.410173
v -0.033466 2.714600 -2.634176
v -0.168814 2.292361 -0.443031
v -0.168814 2.714128 -0.775348
v -0.033465 2.292361 -0.443031
v -0.033465 2.714128 -0.775348
v -0.168814 2.418367 -0.443002
v -0.168814 2.714600 -0.667006
v -0.033465 2.418367 -0.443002
v -0.033465 2.714600 -0.667006
v -0.168814 2.292361 1.495039
v -0.168814 2.714128 1.162721
v -0.033465 2.292361 1.495039
v -0.033465 2.714128 1.162721
v -0.168814 2.418367 1.495067
v -0.168814 2.714600 1.271063
v -0.033465 2.418367 1.495067
v -0.033465 2.714600 1.271063
v -0.168814 2.292361 3.348833
v -0.168814 2.714128 3.016516
v -0.033465 2.292361 3.348833
v -0.033465 2.714128 3.016516
v -0.168814 2.418367 3.348862
v -0.168814 2.714600 3.124858
v -0.033465 2.418367 3.348862
v -0.033465 2.714600 3.124858
v 1.514887 -1.411831 5.044389
v 1.514887 0.655299 5.044389
v 1.514887 -1.411831 4.882444
v 1.514887 0.655299 4.882444
v 1.676832 -1.411831 5.044389
v 1.676832 0.655299 5.044389
v 1.676832 -1.411831 4.882444
v 1.676832 0.655299 4.882444
v -1.752691 -1.411831 -5.830789
v -1.752691 0.655299 -5.830789
v -1.752691 -1.411831 -5.668844
v -1.752691 0.655299 -5.668844
v -1.914635 -1.411831 -5.830789
v -1.914635 0.655299 -5.830789
v -1.914635 -1.411831 -5.668844
v -1.914635 0.655299 -5.668844
v -0.109978 -1.411831 5.044389
v -0.109978 0.655299 5.044389
v -0.109978 -1.411831 4.882444
v -0.109978 0.655299 4.882444
v 0.051967 -1.411831 5.044389
v 0.051967 0.655299 5.044389
v 0.051967 -1.411831 4.882444
v 0.051967 0.655299 4.882444
v -0.108775 -1.411831 -5.830789
v -0.108775 0.655299 -5.830789
v -0.108775 -1.411831 -5.668844
v -0.108775 0.655299 -5.668844
v -0.270719 -1.411831 -5.830789
v -0.270719 0.655299 -5.830789
v -0.270719 -1.411831 -5.668844
v -0.270719 0.655299 -5.668844
v 1.514979 -0.480898 5.017980
v 1.182661 -0.059130 5.017980
v 1.514979 -0.480898 4.923520
v 1.182661 -0.059130 4.923520
v 1.515007 -0.354891 5.017980
v 1.291003 -0.058658 5.017980
v 1.515007 -0.354891 4.923520
v 1.291003 -0.058658 4.923520
v -1.752782 -0.480898 -5.810065
v -1.420465 -0.059130 -5.810065
v -1.752782 -0.480898 -5.715604
v -1.420465 -0.059130 -5.715605
v -1.752811 -0.354891 -5.810065
v -1.528807 -0.058658 -5.810065
v -1.752811 -0.354891 -5.715604
v -1.528807 -0.058658 -5.715604
v 1.688433 0.033846 -4.274930
v 1.688433 -0.059090 -4.274930
v 1.688433 0.033846 3.524169
v 1.688433 -0.059090 3.524169
v -1.918944 0.033846 -4.274930
v -1.918944 -0.059090 -4.274930
v -1.918944 0.033846 3.524169
v -1.918944 -0.059090 3.524169
v -1.918944 -0.059090 -2.325155
v -1.918944 -0.059090 -0.375380
v -1.918944 -0.059090 1.574395
v 1.688433 0.033846 -2.325155
v 1.688433 0.033846 -0.375380
v 1.688433 0.033846 1.574395
v -1.918944 0.033846 1.574395
v -1.918944 0.033846 -0.375380
v -1.918944 0.033846 -2.325155
v 1.688433 -0.059090 1.574395
v 1.688433 -0.059090 -0.375380
v 1.688433 -0.059090 -2.325155
v -0.115256 0.033846 -2.325155
v -0.115256 0.033846 1.574395
v -0.115256 0.033846 -0.375380
v -0.115256 -0.059090 -4.274930
v -0.115256 0.033846 3.524169
v -0.115256 -0.059090 3.524169
v -0.115256 0.033846 -4.274930
v -0.115256 -0.059090 -2.325155
v -0.115256 -0.059090 -0.375380
v -0.115256 -0.059090 1.574395
v 1.688433 0.033846 5.048644
v 1.688433 -0.059090 5.048644
v -0.115256 -0.059090 5.048644
v -0.115256 0.033846 5.048644
v -0.115256 -0.059090 -5.826050
v -1.918944 -0.059090 -5.826050
v -1.918944 0.033846 -5.826050
v -0.115256 0.033846 -5.826050
v -0.205380 -1.406477 -4.110075
v -0.205380 2.705018 -4.110075
v -0.205380 -1.406477 -4.290324
v -0.205380 2.705018 -4.290324
v -0.025131 -1.406477 -4.110075
v -0.025131 2.705018 -4.110075
v -0.025131 -1.406477 -4.290324
v -0.025131 2.705018 -4.290324
v -0.205380 -1.406477 3.529166
v -0.205380 2.705018 3.529166
v -0.205380 -1.406477 3.348917
v -0.205380 2.705018 3.348917
v -0.025131 -1.406477 3.529166
v -0.025131 2.705018 3.529166
v -0.025131 -1.406477 3.348917
v -0.025131 2.705018 3.348917
v -0.205380 -1.406477 1.664531
v -0.205380 2.705018 1.664531
v -0.205380 -1.406477 1.484282
v -0.205380 2.705018 1.484282
v -0.025131 -1.406477 1.664531
v -0.025131 2.705018 1.664531
v -0.025131 -1.406477 1.484282
v -0.025131 2.705018 1.484282
v -0.205380 -1.406477 -0.273913
v -0.205380 2.705018 -0.273913
v -0.205380 -1.406477 -0.454162
v -0.205380 2.705018 -0.454162
v -0.025131 -1.406477 -0.273913
v -0.025131 2.705018 -0.273913
v -0.025131 -1.406477 -0.454162
v -0.025131 2.705018 -0.454162
v -0.205380 -1.406477 -2.239564
v -0.205380 2.705018 -2.239564
v -0.205380 -1.406477 -2.419813
v -0.205380 2.705018 -2.419813
v -0.025131 -1.406477 -2.239564
v -0.025131 2.705018 -2.239564
v -0.025131 -1.406477 -2.419813
v -0.025131 2.705018 -2.419813
v -0.201380 2.704919 3.536886
v -0.201380 2.877168 3.536886
v -0.201380 2.704919 -4.346833
v -0.201380 2.877168 -4.346833
v -0.029131 2.704919 3.536886
v -0.029131 2.877168 3.536886
v -0.029131 2.704919 -4.346833
v -0.029131 2.877168 -4.346833
v -0.201380 2.704919 -2.334121
v -0.201380 2.704919 -0.363191
v -0.201380 2.704919 1.607738
v -0.201380 2.877168 1.607738
v -0.201380 2.877168 -0.363192
v -0.201380 2.877168 -2.334121
v -0.029131 2.704919 1.607738
v -0.029131 2.704919 -0.363192
v -0.029131 2.704919 -2.334121
v -0.029131 2.877168 -2.334121
v -0.029131 2.877168 -0.363191
v -0.029131 2.877168 1.607738
v -0.335394 -0.240966 4.890121
v -0.335394 -0.177336 4.890121
v -0.335394 -0.240966 3.526416
v -0.335394 -0.177336 3.526416
v -0.112618 -0.240966 4.890121
v -0.112618 -0.177336 4.890121
v -0.112618 -0.240966 3.526416
v -0.112618 -0.177336 3.526416
v -0.558170 -0.393677 4.890121
v -0.558170 -0.330047 4.890121
v -0.558170 -0.393677 3.526416
v -0.558170 -0.330047 3.526416
v -0.335394 -0.393677 4.890121
v -0.335394 -0.330047 4.890121
v -0.335394 -0.393677 3.526416
v -0.335394 -0.330047 3.526416
v -0.780946 -0.546387 4.890121
v -0.780946 -0.482758 4.890121
v -0.780946 -0.546387 3.526416
v -0.780946 -0.482758 3.526416
v -0.558170 -0.546387 4.890121
v -0.558170 -0.482758 4.890121
v -0.558170 -0.546387 3.526416
v -0.558170 -0.482758 3.526416
v -1.003723 -0.699098 4.890121
v -1.003723 -0.635469 4.890121
v -1.003723 -0.699098 3.526416
v -1.003723 -0.635469 3.526416
v -0.780946 -0.699098 4.890121
v -0.780946 -0.635469 4.890121
v -0.780946 -0.699098 3.526416
v -0.780946 -0.635469 3.526416
v -1.226499 -0.851809 4.890121
v -1.226499 -0.788179 4.890121
v -1.226499 -0.851809 3.526416
v -1.226499 -0.788179 3.526416
v -1.003723 -0.851809 4.890121
v -1.003723 -0.788179 4.890121
v -1.003723 -0.851809 3.526416
v -1.003723 -0.788179 3.526416
v -1.449275 -1.004520 4.890121
v -1.449275 -0.940890 4.890121
v -1.449275 -1.004520 3.526416
v -1.449275 -0.940890 3.526416
v -1.226499 -1.004520 4.890121
v -1.226499 -0.940890 4.890121
v -1.226499 -1.004520 3.526416
v -1.226499 -0.940890 3.526416
v -1.672051 -1.157230 4.890121
v -1.672051 -1.093601 4.890121
v -1.672051 -1.157230 3.526416
v -1.672051 -1.093601 3.526416
v -1.449275 -1.157230 4.890121
v -1.449275 -1.093601 4.890121
v -1.449275 -1.157230 3.526416
v -1.449275 -1.093601 3.526416
v -1.894827 -1.309941 4.890121
v -1.894827 -1.246312 4.890121
v -1.894827 -1.309941 3.526416
v -1.894827 -1.246312 3.526416
v -1.672051 -1.309941 4.890121
v -1.672051 -1.246312 4.890121
v -1.672051 -1.309941 3.526416
v -1.672051 -1.246312 3.526416
v -1.910120 -1.195295 5.048057
v -1.910120 -1.195295 4.891344
v -0.112618 -0.303118 5.048058
v -0.112618 -0.027344 5.048058
v -0.112618 -0.303118 4.891344
v -0.112618 -0.027344 4.891344
v -1.819983 -1.412500 5.048057
v -1.910120 -1.412501 4.891344
v -1.910120 -1.412501 5.048057
v -1.819983 -1.412500 4.891344
v -1.910120 -1.195295 3.510403
v -1.910120 -1.195295 3.353690
v -0.112618 -0.303118 3.510403
v -0.112618 -0.027344 3.510403
v -0.112618 -0.303118 3.353690
v -0.112618 -0.027344 3.353690
v -1.819983 -1.412500 3.510403
v -1.910120 -1.412501 3.353690
v -1.910120 -1.412501 3.510403
v -1.819983 -1.412500 3.353690
v 0.092783 -0.240966 -5.673507
v 0.092783 -0.177336 -5.673507
v 0.092783 -0.240966 -4.283576
v 0.092783 -0.177336 -4.283576
v -0.129993 -0.240966 -5.673507
v -0.129993 -0.177336 -5.673507
v -0.129993 -0.240966 -4.283576
v -0.129993 -0.177336 -4.283576
v 0.315559 -0.393677 -5.673508
v 0.315559 -0.330047 -5.673508
v 0.315559 -0.393677 -4.283576
v 0.315559 -0.330047 -4.283576
v 0.092783 -0.393677 -5.673507
v 0.092783 -0.330047 -5.673507
v 0.092783 -0.393677 -4.283576
v 0.092783 -0.330047 -4.283576
v 0.538335 -0.546387 -5.673508
v 0.538335 -0.482758 -5.673508
v 0.538335 -0.546387 -4.283576
v 0.538335 -0.482758 -4.283576
v 0.315559 -0.546387 -5.673508
v 0.315559 -0.482758 -5.673508
v 0.315559 -0.546387 -4.283576
v 0.315559 -0.482758 -4.283576
v 0.761111 -0.699098 -5.673508
v 0.761111 -0.635469 -5.673508
v 0.761111 -0.699098 -4.283576
v 0.761111 -0.635469 -4.283576
v 0.538335 -0.699098 -5.673508
v 0.538335 -0.635469 -5.673508
v 0.538335 -0.699098 -4.283576
v 0.538335 -0.635469 -4.283576
v 0.983887 -0.851809 -5.673508
v 0.983887 -0.788179 -5.673508
v 0.983887 -0.851809 -4.283576
v 0.983887 -0.788179 -4.283576
v 0.761111 -0.851809 -5.673508
v 0.761111 -0.788179 -5.673508
v 0.761111 -0.851809 -4.283576
v 0.761111 -0.788179 -4.283576
v 1.206663 -1.004520 -5.673508
v 1.206663 -0.940890 -5.673508
v 1.206663 -1.004520 -4.283576
v 1.206663 -0.940890 -4.283576
v 0.983887 -1.004520 -5.673508
v 0.983887 -0.940890 -5.673508
v 0.983887 -1.004520 -4.283576
v 0.983887 -0.940890 -4.283576
v 1.429439 -1.157230 -5.673508
v 1.429439 -1.093601 -5.673508
v 1.429440 -1.157230 -4.283576
v 1.429440 -1.093601 -4.283576
v 1.206663 -1.157230 -5.673508
v 1.206663 -1.093601 -5.673508
v 1.206663 -1.157230 -4.283576
v 1.206663 -1.093601 -4.283576
v 1.652215 -1.309941 -5.673508
v 1.652215 -1.246312 -5.673508
v 1.652216 -1.309941 -4.283576
v 1.652216 -1.246312 -4.283576
v 1.429439 -1.309941 -5.673508
v 1.429439 -1.246312 -5.673508
v 1.429440 -1.309941 -4.283576
v 1.429440 -1.246312 -4.283576
v 1.667509 -1.195295 -5.831443
v 1.667509 -1.195295 -5.674730
v -0.129993 -0.303118 -5.831443
v -0.129993 -0.027344 -5.831443
v -0.129993 -0.303118 -5.674729
v -0.129993 -0.027344 -5.674729
v 1.577371 -1.412500 -5.831443
v 1.667509 -1.412501 -5.674730
v 1.667509 -1.412501 -5.831443
v 1.577371 -1.412500 -5.674730
v 1.667509 -1.195295 -4.286119
v 1.667509 -1.195295 -4.129406
v -0.129993 -0.303118 -4.286119
v -0.129993 -0.027344 -4.286119
v -0.129993 -0.303118 -4.129405
v -0.129993 -0.027344 -4.129405
v 1.577371 -1.412500 -4.286119
v 1.667509 -1.412501 -4.129406
v 1.667509 -1.412501 -4.286119
v 1.577371 -1.412500 -4.129406
v 0.484322 0.010199 3.326061
v 0.397758 0.213235 3.325472
v 0.485940 0.011274 3.458696
v 0.399376 0.214310 3.458106
v 0.137889 0.006772 3.330317
v 0.220379 0.211480 3.327651
v 0.139508 0.007847 3.462952
v 0.221998 0.212556 3.460285
v 0.337369 0.165051 3.368204
v 0.647403 0.997952 3.376985
v 0.340864 0.165302 3.419453
v 0.650898 0.998202 3.428234
v 0.289393 0.183131 3.371387
v 0.599427 1.016032 3.380168
v 0.292887 0.183382 3.422636
v 0.602922 1.016283 3.431417
v -0.102325 2.708007 -3.462417
v -0.102325 2.708007 -3.167513
v -0.102325 1.272932 -3.167513
v -0.102325 1.272932 -3.462417
v -0.102325 2.708007 -1.503448
v -0.102325 2.708007 -1.208544
v -0.102325 1.272932 -1.208544
v -0.102325 1.272932 -1.503448
v -0.102325 2.708007 0.482113
v -0.102325 2.708007 0.777016
v -0.102325 1.272932 0.777016
v -0.102325 1.272932 0.482112
v -0.102325 2.708007 2.420967
v -0.102325 2.708007 2.715871
v -0.102325 1.272932 2.715871
v -0.102325 1.272932 2.420967
vt 1.526125 0.815072
vt 1.565916 0.794135
vt 1.526125 0.794135
vt 1.371869 0.626706
vt 1.405323 0.644170
vt 1.371869 0.644170
vt 0.168039 0.778397
vt 0.665164 0.830978
vt 0.168039 0.830978
vt 0.607520 0.667992
vt 0.153138 0.717146
vt 0.607520 0.717146
vt 1.586254 0.819265
vt 1.548656 0.779041
vt 1.546464 0.819265
vt 0.747332 0.722450
vt 0.255775 0.773643
vt 0.202341 0.722450
vt -0.528553 0.614892
vt 1.555550 0.656342
vt -0.530369 0.656342
vt 1.447470 0.829577
vt -0.584580 0.789353
vt 1.449663 0.789353
vt 0.297672 0.822157
vt 0.672328 0.781759
vt 0.713381 0.822157
vt 0.244630 0.979570
vt 0.262860 0.998695
vt 0.263698 0.979570
vt 0.272823 0.827361
vt 0.729195 0.778108
vt 0.275239 0.778108
vt 0.298014 0.791274
vt 0.713381 0.812642
vt 0.713381 0.791274
vt 0.080087 0.826482
vt 0.971792 0.775080
vt 0.971792 0.826482
vt 1.008729 0.815072
vt 1.048953 0.794135
vt 1.008729 0.794135
vt 0.746410 0.761953
vt 0.255775 0.734141
vt 0.255775 0.761953
vt 0.747082 0.734141
vt 0.202341 0.761953
vt 0.202341 0.734141
vt 0.505242 0.979570
vt 0.495287 0.998695
vt 0.495287 0.979570
vt 0.747082 0.722450
vt 0.255775 0.773643
vt 0.747089 0.773643
vt 1.487260 0.829577
vt 1.488750 0.789353
vt -0.485586 0.779041
vt -0.524123 0.819265
vt 1.528318 0.794135
vt -0.505925 0.815072
vt -0.505925 0.794135
vt -0.544462 0.815072
vt -0.544462 0.794135
vt 0.503163 0.728428
vt 0.446318 0.758877
vt 0.446318 0.728428
vt 0.152276 0.728428
vt 0.689716 0.758877
vt 0.152276 0.758877
vt 0.175673 0.830898
vt 0.689757 0.776524
vt 0.175673 0.776524
vt 0.152276 0.758877
vt 0.689716 0.728428
vt 0.152276 0.728428
vt 1.225282 0.998695
vt 1.244101 0.979570
vt -0.569881 0.614892
vt -0.571027 0.656342
vt 1.590517 0.644170
vt -0.607566 0.621435
vt -0.607566 0.644170
vt -0.348154 0.626706
vt -0.348154 0.644170
vt 0.310313 0.679527
vt 0.359468 0.705611
vt 0.359468 0.679527
vt 0.607520 0.705611
vt 0.153138 0.679527
vt 0.607520 0.679527
vt 0.607520 0.679527
vt 0.153138 0.705611
vt 0.607520 0.705611
vt 0.607520 0.717146
vt 0.153138 0.667992
vt 0.607520 0.667992
vt 0.653458 0.663369
vt 0.000803 0.612239
vt 0.000803 0.663369
vt 0.653458 0.663369
vt 0.000803 0.612239
vt 0.000803 0.663369
vt 0.653458 0.612239
vt 0.000803 0.663369
vt 0.653458 0.612239
vt 0.000803 0.612239
vt 0.352695 0.612239
vt 0.301565 0.663369
vt 0.352695 0.663369
vt 0.352695 0.663369
vt 0.301565 0.612239
vt 0.352695 0.612239
vt 0.414188 0.712499
vt 0.204304 0.665493
vt 0.204304 0.712499
vt 0.331119 0.895217
vt 0.540093 0.935010
vt 0.587851 0.898277
vt 0.310496 0.778732
vt 0.171413 0.823082
vt 0.171413 0.778732
vt 0.541584 0.937779
vt 0.332610 0.897986
vt 0.589343 0.901046
vt 0.989308 0.057490
vt 0.989304 0.039020
vt 0.989304 0.039020
vt 0.940593 0.100842
vt 0.956474 0.100912
vt 0.956474 0.100912
vt 0.817326 0.779699
vt 0.167910 0.830576
vt 0.167910 0.779699
vt 0.817326 0.779699
vt 0.167910 0.830576
vt 0.167910 0.779699
vt 0.817326 0.830576
vt 0.167910 0.779699
vt 0.817326 0.830576
vt 0.167910 0.830576
vt 0.467179 0.830576
vt 0.518056 0.779699
vt 0.467179 0.779699
vt 0.467179 0.779699
vt 0.518056 0.830576
vt 0.467179 0.830576
vt 0.324153 0.835898
vt 0.534807 0.883077
vt 0.324153 0.883077
vt 0.298182 0.784028
vt 0.087130 0.821403
vt 0.039492 0.783775
vt 0.611608 0.709494
vt 0.482910 0.668455
vt 0.482910 0.709494
vt 0.087967 0.821304
vt 0.299019 0.783929
vt 0.040329 0.783676
vt 0.989317 0.057621
vt 0.989313 0.039151
vt 0.989313 0.039151
vt 0.940602 0.100973
vt 0.956483 0.101042
vt 0.956483 0.101042
vt 0.740514 0.828383
vt 0.144420 0.781683
vt 0.144420 0.828383
vt 0.740514 0.828383
vt 0.144420 0.781683
vt 0.144420 0.828383
vt 0.740514 0.781683
vt 0.144420 0.828383
vt 0.740514 0.781683
vt 0.144420 0.781683
vt 0.465817 0.781683
vt 0.419117 0.828383
vt 0.465817 0.828383
vt 0.465817 0.828383
vt 0.419117 0.781683
vt 0.465817 0.781683
vt 0.414447 0.713533
vt 0.204563 0.666527
vt 0.204563 0.713533
vt 0.338791 0.891354
vt 0.547765 0.931147
vt 0.595524 0.894414
vt 0.309643 0.780346
vt 0.170561 0.824695
vt 0.170561 0.780346
vt 0.547599 0.929708
vt 0.338625 0.889915
vt 0.595358 0.892975
vt 0.989308 0.057490
vt 0.989304 0.039020
vt 0.989304 0.039020
vt 0.940593 0.100843
vt 0.956474 0.100912
vt 0.956474 0.100912
vt 0.830625 0.835062
vt 0.149689 0.888408
vt 0.149689 0.835062
vt 0.830625 0.835062
vt 0.149689 0.888408
vt 0.149689 0.835062
vt 0.830625 0.888408
vt 0.149689 0.835062
vt 0.830625 0.888408
vt 0.149689 0.888408
vt 0.463484 0.888408
vt 0.516830 0.835062
vt 0.463484 0.835062
vt 0.463484 0.835062
vt 0.516830 0.888408
vt 0.463484 0.888408
vt 0.324359 0.835898
vt 0.535013 0.883077
vt 0.324359 0.883077
vt 0.299331 0.784175
vt 0.088279 0.821551
vt 0.040640 0.783922
vt 0.612683 0.711822
vt 0.483985 0.670784
vt 0.483985 0.711822
vt 0.089764 0.820952
vt 0.300817 0.783576
vt 0.042126 0.783323
vt 0.989317 0.057621
vt 0.989313 0.039151
vt 0.989313 0.039151
vt 0.940602 0.100973
vt 0.956483 0.101043
vt 0.956483 0.101043
vt 0.796108 0.827827
vt 0.185437 0.779986
vt 0.185437 0.827827
vt 0.796108 0.827827
vt 0.185437 0.779986
vt 0.185437 0.827827
vt 0.796108 0.779986
vt 0.185437 0.827827
vt 0.796108 0.779986
vt 0.185437 0.779986
vt 0.514693 0.779986
vt 0.466851 0.827827
vt 0.514693 0.827827
vt 0.514693 0.827827
vt 0.466851 0.779986
vt 0.514693 0.779986
vt 0.204563 0.714308
vt 0.414447 0.667302
vt 0.204563 0.667302
vt 0.337275 0.897533
vt 0.546249 0.937326
vt 0.594008 0.900593
vt 0.173976 0.780346
vt 0.313058 0.824695
vt 0.173976 0.824695
vt 0.551506 0.932344
vt 0.342532 0.892551
vt 0.599265 0.895611
vt 0.989308 0.057490
vt 0.989304 0.039020
vt 0.989304 0.039020
vt 0.940593 0.100842
vt 0.956474 0.100912
vt 0.956474 0.100912
vt 0.810725 0.835221
vt 0.196657 0.883328
vt 0.196657 0.835221
vt 0.810725 0.835221
vt 0.196657 0.883328
vt 0.196657 0.835221
vt 0.810725 0.883328
vt 0.196657 0.835221
vt 0.810725 0.883328
vt 0.196657 0.883328
vt 0.479637 0.835221
vt 0.527745 0.883328
vt 0.527745 0.835221
vt 0.479637 0.835221
vt 0.527745 0.883328
vt 0.479637 0.883328
vt 0.535013 0.835898
vt 0.324359 0.883077
vt 0.324359 0.835898
vt 0.307283 0.785644
vt 0.096231 0.823020
vt 0.048592 0.785392
vt 0.611966 0.710389
vt 0.483268 0.669351
vt 0.483268 0.710389
vt 0.090864 0.823085
vt 0.301916 0.785710
vt 0.043225 0.785457
vt 0.989317 0.057621
vt 0.989313 0.039151
vt 0.989313 0.039151
vt 0.940602 0.100973
vt 0.956483 0.101042
vt 0.956483 0.101042
vt 0.821880 0.774757
vt 0.168277 0.723552
vt 0.168277 0.774757
vt 0.821880 0.774757
vt 0.168277 0.723552
vt 0.168277 0.774757
vt 0.821880 0.723552
vt 0.168277 0.774757
vt 0.821880 0.723552
vt 0.168277 0.723552
vt 0.520681 0.723552
vt 0.469476 0.774757
vt 0.520681 0.774757
vt 0.520681 0.774757
vt 0.469476 0.723552
vt 0.520681 0.723552
vt 0.406432 0.713274
vt 0.196548 0.666268
vt 0.196548 0.713274
vt 0.336564 0.896200
vt 0.545537 0.935993
vt 0.593296 0.899260
vt 0.308179 0.784736
vt 0.169097 0.829086
vt 0.169097 0.784736
vt 0.540086 0.932977
vt 0.331112 0.893184
vt 0.587845 0.896244
vt 0.989308 0.057490
vt 0.989304 0.039020
vt 0.989304 0.039020
vt 0.940593 0.100842
vt 0.956474 0.100912
vt 0.956474 0.100912
vt 0.823419 0.778039
vt 0.163046 0.829774
vt 0.163046 0.778039
vt 0.823419 0.778039
vt 0.163046 0.829774
vt 0.163046 0.778039
vt 0.823419 0.829774
vt 0.163046 0.778039
vt 0.823419 0.829774
vt 0.163046 0.829774
vt 0.467365 0.778039
vt 0.519100 0.829774
vt 0.519101 0.778039
vt 0.467365 0.778039
vt 0.519100 0.829774
vt 0.467365 0.829774
vt 0.528423 0.835486
vt 0.317768 0.882665
vt 0.317768 0.835486
vt 0.307308 0.784652
vt 0.096256 0.822027
vt 0.048617 0.784399
vt 0.611429 0.710210
vt 0.482731 0.669172
vt 0.482731 0.710210
vt 0.091168 0.822059
vt 0.302220 0.784684
vt 0.043529 0.784431
vt 0.989317 0.057621
vt 0.989313 0.039151
vt 0.989313 0.039151
vt 0.940602 0.100973
vt 0.956483 0.101042
vt 0.956483 0.101042
vt 0.820304 0.774596
vt 0.155088 0.722482
vt 0.155088 0.774596
vt 0.820304 0.774597
vt 0.155088 0.722482
vt 0.155088 0.774597
vt 0.820304 0.722482
vt 0.155088 0.774596
vt 0.820304 0.722482
vt 0.155088 0.722482
vt 0.513754 0.722482
vt 0.461639 0.774597
vt 0.513754 0.774597
vt 0.513754 0.774597
vt 0.461639 0.722482
vt 0.513754 0.722482
vt 0.410827 0.714308
vt 0.200943 0.667302
vt 0.200943 0.714308
vt 0.331065 0.897607
vt 0.540039 0.937400
vt 0.587798 0.900667
vt 0.172756 0.779858
vt 0.311838 0.824207
vt 0.172756 0.824207
vt 0.544917 0.933963
vt 0.335943 0.894170
vt 0.592676 0.897230
vt 0.989308 0.057490
vt 0.989304 0.039020
vt 0.989304 0.039020
vt 0.940593 0.100843
vt 0.956474 0.100912
vt 0.956474 0.100912
vt 0.687086 0.834329
vt 0.018851 0.886680
vt 0.018851 0.834329
vt 0.687086 0.834329
vt 0.018851 0.886680
vt 0.018851 0.834329
vt 0.687086 0.886680
vt 0.018851 0.834329
vt 0.687086 0.886680
vt 0.018851 0.886680
vt 0.326793 0.834329
vt 0.379144 0.886680
vt 0.379144 0.834329
vt 0.326793 0.834329
vt 0.379144 0.886680
vt 0.326793 0.886680
vt 0.527599 0.836722
vt 0.316945 0.883901
vt 0.316945 0.836722
vt 0.301908 0.784438
vt 0.090856 0.821813
vt 0.043217 0.784185
vt 0.612683 0.711285
vt 0.483985 0.670247
vt 0.483985 0.711285
vt 0.099358 0.821945
vt 0.310410 0.784570
vt 0.051719 0.784317
vt 0.989317 0.057621
vt 0.989313 0.039151
vt 0.989313 0.039151
vt 0.940602 0.100973
vt 0.956483 0.101042
vt 0.956483 0.101042
vt 0.419074 0.723634
vt 0.261855 0.774087
vt 0.261855 0.723634
vt 0.472368 0.782866
vt 0.698003 0.827611
vt 0.749947 0.788284
vt 0.308825 0.774087
vt 0.419250 0.723634
vt 0.308825 0.723634
vt 0.696778 0.825992
vt 0.471143 0.781247
vt 0.748721 0.786665
vt 0.280214 0.774087
vt 0.320600 0.723634
vt 0.320600 0.774087
vt 0.419074 0.723634
vt 0.261855 0.774087
vt 0.261855 0.723634
vt 0.471959 0.782327
vt 0.697595 0.827071
vt 0.749538 0.787744
vt 0.308825 0.774087
vt 0.419250 0.723634
vt 0.308825 0.723634
vt 0.696100 0.825656
vt 0.470464 0.780912
vt 0.748043 0.786329
vt 0.280214 0.774087
vt 0.320600 0.723634
vt 0.320600 0.774087
vt 0.419074 0.723634
vt 0.261855 0.774087
vt 0.261855 0.723634
vt 0.470749 0.784092
vt 0.696384 0.828836
vt 0.748327 0.789509
vt 0.308825 0.774087
vt 0.419250 0.723634
vt 0.308825 0.723634
vt 0.698273 0.827407
vt 0.472638 0.782662
vt 0.750216 0.788080
vt 0.280214 0.774087
vt 0.320600 0.723634
vt 0.320600 0.774087
vt 0.419074 0.723634
vt 0.261855 0.774087
vt 0.261855 0.723634
vt 0.472098 0.783071
vt 0.697733 0.827815
vt 0.749677 0.788488
vt 0.308825 0.774087
vt 0.419250 0.723634
vt 0.308825 0.723634
vt 0.697529 0.827545
vt 0.471894 0.782801
vt 0.749472 0.788218
vt 0.280214 0.774087
vt 0.320600 0.723634
vt 0.320600 0.774087
vt 0.419074 0.774087
vt 0.261855 0.723634
vt 0.261855 0.774087
vt 0.567060 0.890963
vt 0.318209 0.942069
vt 0.260549 0.899026
vt 0.308825 0.723634
vt 0.419250 0.774087
vt 0.308825 0.774087
vt 0.315517 0.941926
vt 0.564369 0.890820
vt 0.257858 0.898883
vt 0.424287 0.723634
vt 0.383902 0.774087
vt 0.383902 0.723634
vt 0.419074 0.774087
vt 0.261855 0.723634
vt 0.261855 0.774087
vt 0.567360 0.891186
vt 0.318508 0.942292
vt 0.260849 0.899249
vt 0.308825 0.723634
vt 0.419250 0.774087
vt 0.308825 0.774087
vt 0.315964 0.941327
vt 0.564816 0.890221
vt 0.258305 0.898284
vt 0.424288 0.723634
vt 0.383902 0.774087
vt 0.383902 0.723634
vt 0.419074 0.774087
vt 0.261855 0.723634
vt 0.261855 0.774087
vt 0.565714 0.890891
vt 0.316863 0.941997
vt 0.259203 0.898955
vt 0.308825 0.723634
vt 0.419250 0.774087
vt 0.308825 0.774087
vt 0.318356 0.941246
vt 0.567208 0.890140
vt 0.260697 0.898203
vt 0.424288 0.723634
vt 0.383902 0.774087
vt 0.383902 0.723634
vt 0.419074 0.774087
vt 0.261855 0.723634
vt 0.261855 0.774087
vt 0.566461 0.890515
vt 0.317610 0.941621
vt 0.259950 0.898579
vt 0.419250 0.723634
vt 0.308825 0.774087
vt 0.308825 0.723634
vt 0.319031 0.942216
vt 0.567883 0.891110
vt 0.261372 0.899173
vt 0.424288 0.723634
vt 0.383902 0.774087
vt 0.383902 0.723634
vt 0.816298 0.719048
vt 0.171398 0.668525
vt 0.171398 0.719048
vt 0.816298 0.719048
vt 0.171398 0.668525
vt 0.171398 0.719048
vt 0.816298 0.668525
vt 0.171398 0.719048
vt 0.816298 0.668525
vt 0.171398 0.668525
vt 0.519110 0.668525
vt 0.468587 0.719048
vt 0.519110 0.719048
vt 0.519110 0.719048
vt 0.468587 0.668525
vt 0.519110 0.668525
vt 0.826993 0.834198
vt 0.159335 0.886505
vt 0.159335 0.834198
vt 0.826993 0.834199
vt 0.159335 0.886505
vt 0.159335 0.834199
vt 0.826993 0.886505
vt 0.159335 0.834198
vt 0.826993 0.886505
vt 0.159335 0.886505
vt 0.467011 0.886505
vt 0.519317 0.834199
vt 0.467011 0.834199
vt 0.467011 0.834199
vt 0.519317 0.886505
vt 0.467011 0.886505
vt 0.835055 0.831301
vt 0.151411 0.777743
vt 0.151411 0.831301
vt 0.835055 0.831301
vt 0.151411 0.777743
vt 0.151411 0.831301
vt 0.835055 0.777743
vt 0.151411 0.831301
vt 0.835055 0.777743
vt 0.151411 0.777743
vt 0.520012 0.777743
vt 0.466454 0.831301
vt 0.520012 0.831301
vt 0.520012 0.831301
vt 0.466454 0.777743
vt 0.520012 0.777743
vt 0.732296 0.612061
vt 0.106523 0.661086
vt 0.106523 0.612061
vt 0.732296 0.612061
vt 0.106523 0.661086
vt 0.106523 0.612061
vt 0.732296 0.661086
vt 0.106523 0.612061
vt 0.732296 0.661086
vt 0.106523 0.661086
vt 0.394897 0.661086
vt 0.443922 0.612061
vt 0.394897 0.612061
vt 0.394897 0.661086
vt 0.443922 0.612061
vt 0.443922 0.661086
vt 0.410827 0.714825
vt 0.200943 0.667819
vt 0.200943 0.714825
vt 0.343652 0.894824
vt 0.552626 0.934617
vt 0.600385 0.897883
vt 0.310619 0.778638
vt 0.171536 0.822988
vt 0.171536 0.778638
vt 0.553474 0.934905
vt 0.344500 0.895112
vt 0.601233 0.898171
vt 0.989308 0.057490
vt 0.989304 0.039020
vt 0.989304 0.039020
vt 0.940593 0.100843
vt 0.956474 0.100912
vt 0.956474 0.100912
vt 0.528629 0.835692
vt 0.317974 0.882871
vt 0.317974 0.835692
vt 0.308170 0.783560
vt 0.097117 0.820935
vt 0.049479 0.783307
vt 0.611250 0.709493
vt 0.482552 0.668455
vt 0.482552 0.709493
vt 0.095057 0.823865
vt 0.306110 0.786490
vt 0.047419 0.786237
vt 0.989317 0.057621
vt 0.989313 0.039151
vt 0.989313 0.039151
vt 0.940602 0.100973
vt 0.956483 0.101042
vt 0.956483 0.101042
vt 0.380133 0.504840
vt 0.143089 0.285556
vt 0.380133 0.285556
vt 1.013858 0.708312
vt 0.378406 0.675570
vt 1.013858 0.675570
vt 1.260921 0.708312
vt 1.947841 0.675570
vt 1.260921 0.675570
vt 0.376998 0.503918
vt 0.139082 0.283828
vt 0.376998 0.283828
vt 0.194758 0.703781
vt -0.302024 0.680101
vt 0.194758 0.680101
vt 1.013858 0.708312
vt 1.649310 0.675570
vt 1.013858 0.675570
vt 1.947841 0.675570
vt 2.494311 0.708312
vt 1.947841 0.708312
vt 0.139082 0.063738
vt 0.376998 0.063738
vt -0.302024 0.703781
vt -0.690444 0.680101
vt 0.143089 0.066273
vt 0.380133 0.066273
vt 0.380082 0.285060
vt 0.139312 0.062330
vt 0.380082 0.062330
vt 0.372513 0.285342
vt 0.134122 0.064812
vt 0.372513 0.064812
vt 0.377030 0.285593
vt 0.139211 0.065592
vt 0.377030 0.065592
vt 0.377306 0.283203
vt 0.138319 0.504284
vt 0.377306 0.504284
vt 0.381384 0.281250
vt 0.138147 0.506263
vt 0.381384 0.506263
vt 0.379434 0.283828
vt 0.138743 0.061170
vt 0.379434 0.061170
vt 1.685103 0.703781
vt 1.188321 0.680101
vt 1.685103 0.680101
vt 1.188321 0.703781
vt 0.691540 0.680101
vt 0.691539 0.703781
vt 0.377306 0.062123
vt 0.138319 0.283203
vt 0.138147 0.056237
vt 0.138147 0.281250
vt 0.138743 0.506486
vt 0.138743 0.283828
vt -0.799837 0.708312
vt -0.112918 0.675570
vt -0.799837 0.675570
vt -0.112918 0.708312
vt 0.574002 0.675570
vt 0.574002 0.708312
vt 0.378617 0.506325
vt 0.137847 0.283595
vt 0.378617 0.283595
vt 0.134122 0.505873
vt 0.134122 0.285342
vt 0.139211 0.505594
vt 0.139211 0.285593
vt 1.649310 0.708312
vt 1.013858 0.675570
vt 1.649310 0.675570
vt -0.799837 0.675570
vt -1.336920 0.708312
vt -0.799837 0.708312
vt 0.564953 0.285426
vt 0.380338 0.066998
vt 0.564953 0.066998
vt 0.734103 0.069872
vt 0.505416 0.342250
vt 0.734993 0.341498
vt 0.378406 0.708312
vt 1.013858 0.675570
vt 0.378406 0.675570
vt 0.381303 0.283117
vt 0.572030 0.504900
vt 0.381303 0.504900
vt 1.947841 0.708312
vt 2.494311 0.675570
vt 0.750188 0.337633
vt 0.982888 0.065242
vt 0.749298 0.066008
vt 0.999531 0.828005
vt -0.000469 0.784164
vt -0.000469 0.828005
vt 0.999531 0.828005
vt -0.000469 0.784164
vt -0.000469 0.828005
vt 0.999531 0.784164
vt -0.000469 0.828005
vt 0.999531 0.784164
vt -0.000469 0.784164
vt 0.518990 0.947806
vt 0.475150 0.991647
vt 0.518990 0.991647
vt 0.518990 0.991647
vt 0.475150 0.947806
vt 0.518990 0.947806
vt -0.003278 0.713598
vt 0.996722 0.669758
vt 0.996722 0.713598
vt -0.002332 0.772573
vt 0.997668 0.728732
vt 0.997668 0.772573
vt 0.997467 0.727324
vt -0.002533 0.771164
vt -0.002533 0.727324
vt -0.001727 0.658131
vt 0.998273 0.614291
vt 0.998273 0.658131
vt 0.039183 0.852313
vt 0.083024 0.896153
vt 0.039183 0.896153
vt 0.039183 0.896153
vt -0.004657 0.852313
vt 0.039183 0.852313
vt 0.996094 0.768990
vt -0.003906 0.725150
vt -0.003906 0.768990
vt 0.996094 0.768990
vt -0.003906 0.725150
vt -0.003906 0.768990
vt 0.996094 0.725150
vt -0.003906 0.768990
vt 0.996094 0.725150
vt -0.003906 0.725150
vt 0.518014 0.725150
vt 0.474174 0.768990
vt 0.518014 0.768990
vt 0.518014 0.768990
vt 0.474174 0.725150
vt 0.518014 0.725150
vt 1.000000 0.827584
vt 0.000000 0.783744
vt 0.000000 0.827584
vt 1.000000 0.827584
vt 0.000000 0.783744
vt 0.000000 0.827584
vt 1.000000 0.783744
vt 0.000000 0.827584
vt 1.000000 0.783744
vt 0.000000 0.783744
vt 0.521920 0.783744
vt 0.478080 0.827584
vt 0.521920 0.827584
vt 0.521920 0.827584
vt 0.478080 0.783744
vt 0.521920 0.783744
vt 1.002930 0.657662
vt 0.002930 0.613822
vt 0.002930 0.657662
vt 1.002930 0.657662
vt 0.002930 0.613822
vt 0.002930 0.657662
vt 1.002930 0.613822
vt 0.002930 0.657662
vt 1.002930 0.613822
vt 0.002930 0.613822
vt 0.524850 0.613822
vt 0.481010 0.657662
vt 0.524850 0.657662
vt 0.524850 0.657662
vt 0.481010 0.613822
vt 0.524850 0.613822
vt 0.440619 0.993834
vt 0.997400 0.946185
vt 0.440619 0.946185
vt 0.394793 0.714732
vt 0.433789 0.675736
vt 0.394793 0.675736
vt 0.505676 0.994174
vt -0.001963 0.948848
vt 0.505676 0.948848
vt 0.433789 0.714732
vt 0.394793 0.675736
vt 0.433789 0.675736
vt -0.001963 0.994174
vt 0.505676 0.994174
vt 0.505676 0.994174
vt -0.001963 0.948848
vt 0.505676 0.948848
vt 0.997400 0.993834
vt 0.440619 0.946185
vt 0.997400 0.946185
vt 0.508298 0.894736
vt -0.001260 0.939269
vt -0.001260 0.894736
vt 0.995952 0.891368
vt 0.432073 0.940648
vt 0.432073 0.891368
vt 0.997400 0.946185
vt 0.440619 0.993834
vt 0.997400 0.993834
vt 0.508298 0.939269
vt -0.001260 0.894736
vt -0.001260 0.939269
vt 0.995952 0.940648
vt 0.432073 0.891368
vt 0.432073 0.940648
vt 0.997400 0.993834
vt 0.440619 0.946185
vt 0.508298 0.939269
vt 0.508298 0.894736
vt 0.995952 0.940648
vt 0.995952 0.891368
vt -0.001963 0.994174
vt 0.505676 0.948848
vt -0.001963 0.948848
vt 0.995952 0.891368
vt 0.432073 0.891368
vt 0.508298 0.894736
vt -0.001260 0.894736
vt 0.081698 0.877813
vt 0.846875 0.842110
vt 0.081698 0.842110
vt 0.875000 0.817753
vt 1.000000 0.782051
vt 0.875000 0.782051
vt 0.892664 0.876661
vt 0.127487 0.840958
vt 0.892664 0.840958
vt 1.000000 0.817753
vt 0.875000 0.782051
vt 1.000000 0.782051
vt 0.678727 0.779032
vt 0.380612 0.827733
vt 0.678727 0.827733
vt 0.609253 0.656493
vt 0.387558 0.620276
vt 0.609253 0.620276
vt 0.071240 0.824732
vt 0.836417 0.789029
vt 0.071240 0.789029
vt 0.750000 0.732067
vt 0.875000 0.696364
vt 0.750000 0.696364
vt 0.888789 0.825079
vt 0.123612 0.789376
vt 0.888789 0.789376
vt 0.875000 0.732067
vt 0.750000 0.696364
vt 0.875000 0.696364
vt 0.517106 0.614354
vt 0.218991 0.663054
vt 0.517106 0.663054
vt 0.352905 0.715658
vt 0.131210 0.679442
vt 0.352905 0.679442
vt 0.060770 0.817279
vt 0.825948 0.781577
vt 0.060770 0.781577
vt 0.625000 0.646381
vt 0.750000 0.610678
vt 0.625000 0.610678
vt 0.879488 0.768071
vt 0.114310 0.732368
vt 0.879488 0.732368
vt 0.750000 0.646381
vt 0.625000 0.610678
vt 0.750000 0.610678
vt 0.517106 0.670867
vt 0.218991 0.719567
vt 0.517106 0.719567
vt 0.334839 0.761640
vt 0.113144 0.725424
vt 0.334839 0.725424
vt 0.042930 0.764813
vt 0.808107 0.729111
vt 0.042930 0.729111
vt 0.500000 0.560694
vt 0.625000 0.524992
vt 0.500000 0.524992
vt 0.879488 0.710288
vt 0.114310 0.674586
vt 0.879488 0.674586
vt 0.625000 0.560694
vt 0.500000 0.524992
vt 0.625000 0.524992
vt 0.513688 0.725427
vt 0.215573 0.774127
vt 0.513688 0.774127
vt 0.337768 0.825688
vt 0.116073 0.789472
vt 0.337768 0.789472
vt 0.060770 0.710502
vt 0.825948 0.674800
vt 0.060770 0.674800
vt 0.375000 0.475008
vt 0.500000 0.439306
vt 0.375000 0.439306
vt 0.879488 0.651731
vt 0.114310 0.616028
vt 0.879488 0.616028
vt 0.500000 0.475008
vt 0.375000 0.439306
vt 0.500000 0.439306
vt 0.515642 0.777545
vt 0.217526 0.826245
vt 0.515642 0.826245
vt 0.319214 0.874600
vt 0.097519 0.838384
vt 0.319214 0.838384
vt 0.057079 0.709098
vt 0.822256 0.673395
vt 0.057079 0.673395
vt 0.250000 0.389322
vt 0.375000 0.353619
vt 0.250000 0.353619
vt 0.835307 0.879184
vt 0.070130 0.843481
vt 0.835307 0.843481
vt 0.375000 0.389322
vt 0.250000 0.353619
vt 0.375000 0.353619
vt 0.522966 0.835522
vt 0.224851 0.884223
vt 0.522966 0.884223
vt 0.324585 0.823414
vt 0.102890 0.787198
vt 0.324585 0.787198
vt 0.032471 0.710154
vt 0.797649 0.674452
vt 0.032471 0.674452
vt 0.125000 0.303636
vt 0.250000 0.267933
vt 0.125000 0.267933
vt 0.826006 0.819851
vt 0.060829 0.784149
vt 0.826006 0.784149
vt 0.250000 0.303636
vt 0.125000 0.267933
vt 0.250000 0.267933
vt 0.585462 0.779731
vt 0.287347 0.828432
vt 0.585462 0.828432
vt 0.736206 0.763439
vt 0.514511 0.727223
vt 0.736206 0.727223
vt 0.031241 0.711826
vt 0.796418 0.676123
vt 0.031241 0.676123
vt 0.000000 0.217950
vt 0.125000 0.182247
vt 0.000000 0.182247
vt 0.826781 0.765169
vt 0.061604 0.729466
vt 0.826781 0.729466
vt 0.125000 0.217950
vt 0.000000 0.182247
vt 0.125000 0.182247
vt 0.587903 0.837709
vt 0.289788 0.886409
vt 0.587903 0.886409
vt 0.743042 0.881198
vt 0.521347 0.844982
vt 0.743042 0.844982
vt 0.527960 0.893106
vt 0.450493 0.939350
vt 0.449538 0.894786
vt 0.231400 0.717305
vt 0.206088 0.678733
vt 0.222096 0.668229
vt 0.200343 0.829928
vt 0.760537 0.781088
vt 0.760537 0.829928
vt 0.459514 0.940655
vt 0.520327 0.894768
vt 0.458559 0.896091
vt 0.226793 0.828287
vt 0.758896 0.779447
vt 0.226793 0.779447
vt 0.230657 0.719002
vt 0.685952 0.714937
vt 0.653600 0.666106
vt 0.198702 0.779447
vt 0.534384 0.892522
vt 0.447160 0.942089
vt 0.447160 0.892522
vt 0.313165 0.715620
vt 0.288886 0.677517
vt 0.304698 0.667441
vt 0.233056 0.773113
vt 0.796778 0.723965
vt 0.796778 0.773113
vt 0.460722 0.943488
vt 0.529422 0.893921
vt 0.460722 0.893921
vt 0.261325 0.773113
vt 0.796778 0.723965
vt 0.261325 0.723965
vt 0.313165 0.715620
vt 0.759043 0.719581
vt 0.728217 0.671204
vt 0.233056 0.723965
vt 0.882589 0.805614
vt 0.117412 0.769912
vt 0.882589 0.769912
vt 0.958157 0.063241
vt 0.925502 0.053914
vt 0.958157 0.053914
vt 0.052797 0.824391
vt 0.944102 0.783588
vt 0.052797 0.783588
vt 0.925502 0.063241
vt 0.958157 0.053914
vt 0.925502 0.053914
vt 0.352354 0.827164
vt 0.652297 0.779090
vt 0.352354 0.779090
vt 0.007346 0.829965
vt 0.309002 0.780686
vt 0.309002 0.829965
vt 0.882589 0.719928
vt 0.117412 0.684225
vt 0.882589 0.684225
vt 0.959419 0.062559
vt 0.926765 0.053232
vt 0.959419 0.053232
vt 0.052022 0.769095
vt 0.943327 0.728292
vt 0.052022 0.728292
vt 0.926765 0.062559
vt 0.959419 0.053232
vt 0.926765 0.053232
vt 0.150828 0.778297
vt 0.450771 0.826371
vt 0.450771 0.778297
vt 0.007346 0.722618
vt 0.309002 0.771897
vt 0.007346 0.771897
vt 0.791903 0.655169
vt 0.026725 0.619467
vt 0.791903 0.619467
vt 0.959520 0.062265
vt 0.926865 0.052938
vt 0.959520 0.052938
vt 0.050471 0.712248
vt 0.941777 0.671445
vt 0.050471 0.671445
vt 0.926865 0.062265
vt 0.959520 0.052938
vt 0.926865 0.052938
vt 0.605036 0.829453
vt 0.904979 0.781379
vt 0.605036 0.781379
vt 0.004905 0.668456
vt 0.306561 0.717735
vt 0.004905 0.717735
vt 0.772525 0.709776
vt 0.007348 0.674073
vt 0.772525 0.674073
vt 0.958069 0.062359
vt 0.925415 0.053032
vt 0.958069 0.053032
vt 0.052022 0.656951
vt 0.943328 0.616148
vt 0.052022 0.616148
vt 0.925415 0.062359
vt 0.958069 0.053032
vt 0.925415 0.053032
vt 0.143077 0.772077
vt 0.443020 0.724003
vt 0.143077 0.724003
vt 0.276847 0.937920
vt 0.566356 0.890625
vt 0.566356 0.937920
vt 0.774075 0.820965
vt 0.008898 0.785262
vt 0.774075 0.785262
vt 0.958945 0.062840
vt 0.926290 0.053513
vt 0.958945 0.053513
vt 0.049696 0.821782
vt 0.941002 0.780979
vt 0.049696 0.780979
vt 0.926290 0.062840
vt 0.958945 0.053513
vt 0.926290 0.053513
vt 0.428314 0.723985
vt 0.728256 0.772059
vt 0.728256 0.723985
vt 0.003928 0.613844
vt 0.305584 0.663123
vt 0.003928 0.663123
vt 0.782523 0.826052
vt 0.017346 0.790350
vt 0.782523 0.790350
vt 0.959820 0.062934
vt 0.927166 0.053607
vt 0.959820 0.053607
vt 0.048921 0.716879
vt 0.940227 0.676076
vt 0.048921 0.676076
vt 0.927166 0.062934
vt 0.959820 0.053607
vt 0.927166 0.053607
vt 0.674020 0.772041
vt 0.973962 0.723967
vt 0.674020 0.723967
vt 0.311545 0.613394
vt 0.613201 0.662673
vt 0.311545 0.662673
vt 0.821356 0.762756
vt 0.056179 0.727054
vt 0.821356 0.727054
vt 0.959920 0.062640
vt 0.927266 0.053313
vt 0.959920 0.053313
vt 0.051247 0.656157
vt 0.942553 0.615354
vt 0.051247 0.615354
vt 0.927266 0.062640
vt 0.959920 0.053313
vt 0.927266 0.053313
vt 0.141527 0.715441
vt 0.441470 0.667366
vt 0.141527 0.667366
vt 0.006725 0.883235
vt 0.296234 0.835941
vt 0.296234 0.883235
vt 0.803529 0.710399
vt 0.038352 0.674697
vt 0.803529 0.674697
vt 0.958858 0.062734
vt 0.926203 0.053407
vt 0.958858 0.053407
vt 0.052797 0.882221
vt 0.944103 0.841418
vt 0.052797 0.841418
vt 0.926203 0.062734
vt 0.958858 0.053407
vt 0.926203 0.053407
vt 0.481795 0.716197
vt 0.781738 0.668123
vt 0.481795 0.668123
vt 0.006725 0.885159
vt 0.296234 0.837865
vt 0.296234 0.885159
vt 0.553704 0.940267
vt 0.472057 0.893870
vt 0.472057 0.940267
vt 0.616715 0.829034
vt 0.640810 0.791789
vt 0.625354 0.781790
vt 0.781613 0.723512
vt 0.201372 0.774100
vt 0.201372 0.723512
vt 0.481025 0.893045
vt 0.545332 0.939442
vt 0.481025 0.939442
vt 0.755214 0.723512
vt 0.204071 0.774100
vt 0.755214 0.774100
vt 0.616694 0.828051
vt 0.178921 0.831004
vt 0.209287 0.783572
vt 0.784311 0.774100
vt 0.555845 0.940466
vt 0.473498 0.893671
vt 0.473498 0.940466
vt 0.619000 0.828838
vt 0.643330 0.791292
vt 0.627749 0.781195
vt 0.786353 0.723295
vt 0.201133 0.774317
vt 0.201133 0.723295
vt 0.479647 0.892846
vt 0.544506 0.939641
vt 0.479647 0.939641
vt 0.757006 0.723295
vt 0.201133 0.774317
vt 0.757006 0.774317
vt 0.618205 0.828240
vt 0.176678 0.831689
vt 0.207254 0.783817
vt 0.786353 0.774317
vt 0.801165 0.825455
vt 0.692907 0.785388
vt 0.691694 0.825987
vt 0.407675 0.824314
vt 0.467173 0.778055
vt 0.388494 0.778027
vt 0.804540 0.778449
vt 0.693890 0.819564
vt 0.695102 0.778966
vt 0.467182 0.777174
vt 0.407684 0.823433
vt 0.388503 0.777146
vt 0.615740 0.716871
vt 0.382515 0.665980
vt 0.382488 0.716833
vt 0.797364 0.781351
vt 0.702972 0.823934
vt 0.702123 0.783380
vt 0.882450 0.615457
vt 0.101602 0.661057
vt 0.101012 0.612980
vt 0.890992 0.676741
vt 0.142244 0.714308
vt 0.142393 0.671121
vt 0.149169 0.717593
vt 0.852013 0.667843
vt 0.148103 0.674294
vt 0.140999 0.716984
vt 0.889747 0.679417
vt 0.141147 0.673797
vt 0.287608 0.776966
vt 0.236359 0.824825
vt 0.284129 0.827995
vt 0.588925 0.776836
vt 0.537676 0.824695
vt 0.541156 0.773666
vt 0.548097 0.602917
vt 0.997702 0.510524
vt 0.997702 0.602917
vt 0.548097 0.602917
vt 0.997702 0.510524
vt 0.997702 0.602917
vt 0.548097 0.602917
vt 0.997702 0.510524
vt 0.997702 0.602917
vt 0.548097 0.602917
vt 0.997702 0.510524
vt 0.997702 0.602917
vt 0.469476 0.723552
vt 0.467365 0.829774
vt 0.461639 0.722482
vt 0.326793 0.886680
vt 0.017346 0.826052
vt 1.565916 0.815072
vt 1.405323 0.626706
vt 0.665164 0.778397
vt 0.153138 0.667992
vt 1.587744 0.779041
vt 0.746410 0.773643
vt 1.596338 0.614892
vt -0.623117 0.829577
vt 0.301638 0.781759
vt 0.244101 0.998695
vt 0.779247 0.827361
vt 0.297672 0.812642
vt 0.076134 0.775080
vt 1.048953 0.815072
vt 0.747089 0.734141
vt 0.747332 0.761953
vt 0.505242 0.998695
vt 0.202341 0.722450
vt 1.528318 0.815072
vt 0.503163 0.758877
vt 0.689716 0.728428
vt 0.689757 0.830898
vt 0.689716 0.758877
vt 1.590517 0.621435
vt 0.310313 0.705611
vt 0.153138 0.705611
vt 0.153138 0.679527
vt 0.153138 0.717146
vt 0.653458 0.612239
vt 0.653458 0.663369
vt 0.301565 0.612239
vt 0.301565 0.663369
vt 0.414188 0.665493
vt 0.362514 0.936426
vt 0.310496 0.823082
vt 0.364005 0.939194
vt 0.989308 0.057490
vt 0.940593 0.100842
vt 0.817326 0.830576
vt 0.817326 0.779699
vt 0.518056 0.830576
vt 0.518056 0.779699
vt 0.534807 0.835898
vt 0.266017 0.825136
vt 0.611608 0.668455
vt 0.266854 0.825037
vt 0.989317 0.057621
vt 0.940602 0.100973
vt 0.740514 0.781683
vt 0.740514 0.828383
vt 0.419117 0.781683
vt 0.419117 0.828383
vt 0.414447 0.666527
vt 0.370187 0.932562
vt 0.309643 0.824695
vt 0.370021 0.931123
vt 0.989308 0.057490
vt 0.940593 0.100843
vt 0.830625 0.888408
vt 0.830625 0.835062
vt 0.516830 0.888408
vt 0.516830 0.835062
vt 0.535013 0.835898
vt 0.267166 0.825284
vt 0.612683 0.670784
vt 0.268651 0.824685
vt 0.989317 0.057621
vt 0.940602 0.100973
vt 0.796108 0.779986
vt 0.796108 0.827827
vt 0.466851 0.779986
vt 0.466851 0.827827
vt 0.414447 0.714308
vt 0.368670 0.938741
vt 0.313058 0.780346
vt 0.373927 0.933759
vt 0.989308 0.057490
vt 0.940593 0.100842
vt 0.810725 0.883328
vt 0.810725 0.835221
vt 0.479637 0.883328
vt 0.527745 0.835221
vt 0.535013 0.883077
vt 0.275118 0.826753
vt 0.611966 0.669351
vt 0.269751 0.826818
vt 0.989317 0.057621
vt 0.940602 0.100973
vt 0.821880 0.723552
vt 0.821880 0.774757
vt 0.469476 0.774757
vt 0.406432 0.666268
vt 0.367959 0.937408
vt 0.308179 0.829085
vt 0.362507 0.934392
vt 0.989308 0.057490
vt 0.940593 0.100842
vt 0.823419 0.829774
vt 0.823419 0.778039
vt 0.519101 0.778039
vt 0.528423 0.882665
vt 0.275142 0.825760
vt 0.611429 0.669172
vt 0.270054 0.825792
vt 0.989317 0.057621
vt 0.940602 0.100973
vt 0.820304 0.722482
vt 0.820304 0.774596
vt 0.461639 0.774597
vt 0.410827 0.667302
vt 0.362460 0.938815
vt 0.311838 0.779858
vt 0.367339 0.935378
vt 0.989308 0.057490
vt 0.940593 0.100843
vt 0.687086 0.886680
vt 0.687086 0.834329
vt 0.379144 0.834329
vt 0.527599 0.883900
vt 0.269743 0.825546
vt 0.612683 0.670247
vt 0.278244 0.825678
vt 0.989317 0.057621
vt 0.940602 0.100973
vt 0.419074 0.774087
vt 0.505977 0.827682
vt 0.419250 0.774087
vt 0.504752 0.826063
vt 0.280214 0.723634
vt 0.419074 0.774087
vt 0.505569 0.827143
vt 0.419250 0.774087
vt 0.504073 0.825728
vt 0.280214 0.723634
vt 0.419074 0.774087
vt 0.504358 0.828908
vt 0.419250 0.774087
vt 0.506247 0.827478
vt 0.280214 0.723634
vt 0.419074 0.774087
vt 0.505707 0.827887
vt 0.419250 0.774087
vt 0.505503 0.827617
vt 0.280214 0.723634
vt 0.419074 0.723634
vt 0.530279 0.940708
vt 0.419250 0.723634
vt 0.527587 0.940565
vt 0.424287 0.774087
vt 0.419074 0.723634
vt 0.530578 0.940932
vt 0.419250 0.723634
vt 0.528034 0.939966
vt 0.424288 0.774087
vt 0.419074 0.723634
vt 0.528933 0.940637
vt 0.419250 0.723634
vt 0.530426 0.939886
vt 0.424288 0.774087
vt 0.419074 0.723634
vt 0.529680 0.940261
vt 0.419250 0.774087
vt 0.531102 0.940856
vt 0.424288 0.774087
vt 0.816298 0.668525
vt 0.816298 0.719048
vt 0.468587 0.668525
vt 0.468587 0.719048
vt 0.826993 0.886505
vt 0.826993 0.834198
vt 0.519317 0.886505
vt 0.519317 0.834199
vt 0.835055 0.777743
vt 0.835055 0.831301
vt 0.466454 0.777743
vt 0.466454 0.831301
vt 0.732296 0.661086
vt 0.732296 0.612061
vt 0.443922 0.661086
vt 0.394897 0.612061
vt 0.410827 0.667819
vt 0.375048 0.936032
vt 0.310619 0.822988
vt 0.375896 0.936320
vt 0.989308 0.057490
vt 0.940593 0.100843
vt 0.528629 0.882870
vt 0.276004 0.824668
vt 0.611250 0.668455
vt 0.273944 0.827598
vt 0.989317 0.057621
vt 0.940602 0.100973
vt 0.143089 0.504840
vt 0.378406 0.708312
vt 0.139082 0.503918
vt 1.649310 0.708312
vt 2.494311 0.675570
vt -0.690444 0.703781
vt 0.139312 0.285060
vt 0.138319 0.062123
vt 0.381384 0.056237
vt 0.379434 0.506485
vt 0.137847 0.506325
vt 0.372513 0.505873
vt 0.377030 0.505594
vt 1.013858 0.708312
vt -1.336920 0.675570
vt 0.380338 0.285426
vt 0.504526 0.070624
vt 1.013858 0.708312
vt 0.572030 0.283117
vt 2.494311 0.708312
vt 0.983778 0.336868
vt 0.999531 0.784164
vt 0.999531 0.828005
vt 0.475150 0.947806
vt 0.475150 0.991647
vt -0.003278 0.669758
vt -0.002332 0.728732
vt 0.997467 0.771164
vt -0.001727 0.614291
vt 0.083024 0.852313
vt -0.004657 0.896153
vt 0.996094 0.725150
vt 0.996094 0.768990
vt 0.474174 0.725150
vt 0.474174 0.768990
vt 1.000000 0.783744
vt 1.000000 0.827584
vt 0.478080 0.783744
vt 0.478080 0.827584
vt 1.002930 0.613822
vt 1.002930 0.657662
vt 0.481010 0.613822
vt 0.481010 0.657662
vt 0.433789 0.714732
vt -0.001963 0.994174
vt 0.394793 0.714732
vt 0.508298 0.939269
vt 0.995952 0.940648
vt 0.440619 0.993834
vt -0.001260 0.939269
vt 0.432073 0.940648
vt 0.846875 0.877813
vt 1.000000 0.817753
vt 0.127487 0.876661
vt 0.875000 0.817753
vt 0.380612 0.779033
vt 0.387558 0.656493
vt 0.836417 0.824732
vt 0.875000 0.732067
vt 0.123612 0.825079
vt 0.750000 0.732067
vt 0.218991 0.614354
vt 0.131210 0.715658
vt 0.825948 0.817279
vt 0.750000 0.646381
vt 0.114310 0.768071
vt 0.625000 0.646381
vt 0.218991 0.670867
vt 0.113144 0.761640
vt 0.808107 0.764813
vt 0.625000 0.560694
vt 0.114310 0.710288
vt 0.500000 0.560694
vt 0.215573 0.725427
vt 0.116073 0.825688
vt 0.825948 0.710502
vt 0.500000 0.475008
vt 0.114310 0.651731
vt 0.375000 0.475008
vt 0.217526 0.777545
vt 0.097519 0.874600
vt 0.822256 0.709098
vt 0.375000 0.389322
vt 0.070130 0.879184
vt 0.250000 0.389322
vt 0.224851 0.835523
vt 0.102890 0.823414
vt 0.797649 0.710154
vt 0.250000 0.303636
vt 0.060829 0.819851
vt 0.125000 0.303636
vt 0.287347 0.779731
vt 0.514511 0.763439
vt 0.796418 0.711826
vt 0.125000 0.217950
vt 0.061604 0.765169
vt 0.000000 0.217950
vt 0.289788 0.837709
vt 0.521347 0.881198
vt 0.528915 0.937671
vt 0.654573 0.666279
vt 0.686709 0.715252
vt 0.200343 0.781088
vt 0.521281 0.939332
vt 0.758896 0.828287
vt 0.221136 0.669967
vt 0.205175 0.680542
vt 0.198702 0.828287
vt 0.534384 0.942089
vt 0.728217 0.671204
vt 0.759043 0.719581
vt 0.233056 0.723965
vt 0.529422 0.943488
vt 0.796778 0.773113
vt 0.304698 0.667441
vt 0.288886 0.677517
vt 0.233056 0.773113
vt 0.117412 0.805614
vt 0.925502 0.063241
vt 0.944102 0.824391
vt 0.958157 0.063241
vt 0.652297 0.827164
vt 0.007346 0.780686
vt 0.117412 0.719928
vt 0.926765 0.062559
vt 0.943327 0.769095
vt 0.959419 0.062559
vt 0.150829 0.826371
vt 0.309002 0.722618
vt 0.026725 0.655169
vt 0.926865 0.062265
vt 0.941777 0.712248
vt 0.959520 0.062265
vt 0.904979 0.829453
vt 0.306561 0.668457
vt 0.007348 0.709776
vt 0.925415 0.062359
vt 0.943328 0.656951
vt 0.958069 0.062359
vt 0.443020 0.772078
vt 0.276847 0.890625
vt 0.008898 0.820965
vt 0.926290 0.062840
vt 0.941002 0.821782
vt 0.958945 0.062840
vt 0.428314 0.772059
vt 0.305584 0.613844
vt 0.927166 0.062934
vt 0.940227 0.716879
vt 0.959820 0.062934
vt 0.973962 0.772041
vt 0.613201 0.613394
vt 0.056179 0.762756
vt 0.927266 0.062640
vt 0.942553 0.656157
vt 0.959920 0.062640
vt 0.441470 0.715441
vt 0.006725 0.835941
vt 0.038352 0.710399
vt 0.926203 0.062734
vt 0.944103 0.882221
vt 0.958858 0.062734
vt 0.781738 0.716197
vt 0.006725 0.837865
vt 0.553704 0.893870
vt 0.209524 0.782618
vt 0.178932 0.829905
vt 0.781613 0.774100
vt 0.545332 0.893045
vt 0.204071 0.723512
vt 0.625108 0.780767
vt 0.640612 0.790693
vt 0.784311 0.723512
vt 0.555845 0.893671
vt 0.208351 0.781708
vt 0.177459 0.829377
vt 0.786353 0.774317
vt 0.544506 0.892846
vt 0.201133 0.723295
vt 0.626640 0.780540
vt 0.642288 0.790534
vt 0.786353 0.723295
vt 0.802377 0.784856
vt 0.447960 0.824328
vt 0.803328 0.819047
vt 0.447969 0.823448
vt 0.615766 0.666018
vt 0.798214 0.821906
vt 0.883040 0.663534
vt 0.890843 0.719928
vt 0.853078 0.711142
vt 0.889598 0.722604
vt 0.239839 0.773797
vt 0.585446 0.827864
vt 0.548097 0.510524
vt 0.548097 0.510524
vt 0.548097 0.510524
vt 0.548097 0.510524
vn -1.0000 0.0000 0.0000
vn 1.0000 0.0000 0.0000
vn 0.0000 1.0000 0.0000
vn 0.0000 -1.0000 0.0000
vn 0.0000 0.0000 -1.0000
vn 0.0000 0.0000 1.0000
vn -0.0370 0.0000 -0.9993
vn 0.0276 0.0000 0.9996
vn -0.7855 -0.6189 0.0000
vn 0.7976 0.6031 0.0000
vn 1.0000 -0.0002 0.0000
vn -0.0044 1.0000 0.0000
vn 0.7855 -0.6189 -0.0000
vn -0.7976 0.6032 0.0000
vn -1.0000 -0.0002 0.0000
vn 0.0044 1.0000 0.0000
vn -0.7976 0.6031 0.0000
vn 0.0000 -0.6189 0.7855
vn 0.0000 0.6031 -0.7976
vn 0.0000 -0.0002 -1.0000
vn 0.0000 1.0000 0.0044
vn 0.0000 -0.6189 -0.7855
vn 0.0000 0.6031 0.7976
vn 0.0000 -0.0002 1.0000
vn 0.0000 1.0000 -0.0044
vn 0.0000 1.0000 -0.0043
vn -0.5448 0.8385 0.0000
vn 0.5448 -0.8385 0.0000
vn 0.5448 0.8385 0.0000
vn -0.5448 -0.8385 0.0000
vn 0.9198 0.3921 -0.0144
vn 0.0122 0.0081 0.9999
vn -0.9275 0.3738 0.0083
vn -0.0122 -0.0081 -0.9999
vn 0.0100 -0.9999 0.0080
vn -0.0100 0.9999 -0.0080
vn 0.9356 -0.3476 -0.0621
vn 0.0546 -0.0308 0.9980
vn -0.9356 0.3476 0.0621
vn -0.0546 0.0308 -0.9980
vn -0.3509 -0.9360 0.0285
vn 0.3509 0.9360 -0.0285
vn 0.0000 1.0000 0.0043
vn 0.7976 0.6032 0.0000
vn -0.5449 0.8385 0.0000
vn -0.3508 -0.9360 0.0285
vn 0.3508 0.9360 -0.0285
usemtl gallows_mat
s off
f 26/1/1 6/2/1 25/3/1
f 33/4/2 4/5/2 34/6/2
f 28/7/3 29/8/3 13/9/3
f 12/10/4 40/11/4 36/12/4
f 6/13/4 27/14/4 25/15/4
f 24/16/3 15/17/3 7/18/3
f 33/19/3 9/20/3 35/21/3
f 26/22/3 15/23/3 28/24/3
f 18/25/3 9/26/3 1/27/3
f 4/28/4 36/29/4 34/30/4
f 17/31/4 10/32/4 19/33/4
f 17/34/5 1/35/5 2/36/5
f 20/37/6 10/38/6 9/39/6
f 5/40/7 14/41/7 6/42/7
f 23/43/5 16/44/5 15/45/5
f 22/46/6 7/47/6 8/48/6
f 3/49/8 12/50/8 4/51/8
f 22/52/4 16/53/4 21/54/4
f 5/55/3 28/24/3 13/56/3
f 25/15/4 16/57/4 8/58/4
f 27/59/2 15/60/2 16/61/2
f 7/62/1 25/3/1 8/63/1
f 30/64/2 31/65/2 32/66/2
f 27/67/6 31/68/6 28/69/6
f 14/70/4 32/71/4 27/72/4
f 13/73/5 30/74/5 14/75/5
f 34/30/4 10/76/4 2/77/4
f 3/78/3 35/21/3 11/79/3
f 36/80/1 9/81/1 10/82/1
f 1/83/2 34/6/2 2/84/2
f 38/85/1 39/86/1 40/87/1
f 11/88/6 38/89/6 12/90/6
f 36/91/5 39/92/5 35/93/5
f 35/94/3 37/95/3 11/96/3
f 42/97/1 43/98/1 41/99/1
f 44/100/5 47/101/5 43/102/5
f 48/103/2 45/104/2 47/101/2
f 46/105/6 41/99/6 45/106/6
f 47/107/4 41/108/4 43/109/4
f 44/110/3 46/111/3 48/112/3
f 50/113/9 51/114/9 49/115/9
f 52/116/5 55/117/5 51/118/5
f 56/119/10 53/120/10 55/121/10
f 53/122/6 50/123/6 49/124/6
f 55/125/11 49/126/11 51/127/11
f 52/128/12 54/129/12 56/130/12
f 58/131/2 59/132/2 57/133/2
f 60/134/6 63/135/6 59/136/6
f 64/137/1 61/138/1 63/135/1
f 62/139/5 57/133/5 61/140/5
f 63/141/4 57/142/4 59/143/4
f 60/144/3 62/145/3 64/146/3
f 65/147/13 68/148/13 67/149/13
f 68/150/6 71/151/6 67/152/6
f 72/153/14 69/154/14 71/155/14
f 69/156/5 66/157/5 65/158/5
f 71/159/15 65/160/15 67/161/15
f 68/162/16 70/163/16 72/164/16
f 74/165/1 75/166/1 73/167/1
f 76/168/5 79/169/5 75/170/5
f 80/171/2 77/172/2 79/169/2
f 78/173/6 73/167/6 77/174/6
f 79/175/4 73/176/4 75/177/4
f 76/178/3 78/179/3 80/180/3
f 82/181/9 83/182/9 81/183/9
f 84/184/5 87/185/5 83/186/5
f 88/187/10 85/188/10 87/189/10
f 85/190/6 82/191/6 81/192/6
f 87/193/11 81/194/11 83/195/11
f 84/196/12 86/197/12 88/198/12
f 90/199/2 91/200/2 89/201/2
f 92/202/6 95/203/6 91/204/6
f 96/205/1 93/206/1 95/203/1
f 94/207/5 89/201/5 93/208/5
f 95/209/4 89/210/4 91/211/4
f 92/212/3 94/213/3 96/214/3
f 97/215/13 100/216/13 99/217/13
f 100/218/6 103/219/6 99/220/6
f 104/221/17 101/222/17 103/223/17
f 101/224/5 98/225/5 97/226/5
f 103/227/15 97/228/15 99/229/15
f 100/230/16 102/231/16 104/232/16
f 106/233/1 107/234/1 105/235/1
f 108/236/5 111/237/5 107/238/5
f 112/239/2 109/240/2 111/237/2
f 110/241/6 105/235/6 109/242/6
f 111/243/4 105/244/4 107/245/4
f 108/246/3 110/247/3 112/248/3
f 113/249/9 116/250/9 115/251/9
f 116/252/5 119/253/5 115/254/5
f 119/255/10 118/256/10 117/257/10
f 117/258/6 114/259/6 113/260/6
f 119/261/11 113/262/11 115/263/11
f 116/264/12 118/265/12 120/266/12
f 122/267/2 123/268/2 121/269/2
f 124/270/6 127/271/6 123/272/6
f 128/273/1 125/274/1 127/271/1
f 126/275/5 121/269/5 125/276/5
f 123/277/4 125/278/4 121/279/4
f 124/280/3 126/281/3 128/282/3
f 130/283/13 131/284/13 129/285/13
f 132/286/6 135/287/6 131/288/6
f 136/289/17 133/290/17 135/291/17
f 133/292/5 130/293/5 129/294/5
f 135/295/15 129/296/15 131/297/15
f 132/298/16 134/299/16 136/300/16
f 138/301/1 139/302/1 137/303/1
f 140/304/5 143/305/5 139/306/5
f 144/307/2 141/308/2 143/305/2
f 142/309/6 137/303/6 141/310/6
f 143/311/4 137/312/4 139/313/4
f 140/314/3 142/315/3 144/316/3
f 146/317/9 147/318/9 145/319/9
f 148/320/5 151/321/5 147/322/5
f 152/323/10 149/324/10 151/325/10
f 149/326/6 146/327/6 145/328/6
f 151/329/11 145/330/11 147/331/11
f 148/332/12 150/333/12 152/334/12
f 154/335/2 155/336/2 153/337/2
f 156/338/6 159/339/6 155/340/6
f 160/341/1 157/342/1 159/339/1
f 158/343/5 153/337/5 157/344/5
f 155/345/4 157/346/4 153/347/4
f 156/348/3 158/349/3 160/350/3
f 162/351/13 163/352/13 161/353/13
f 164/354/6 167/355/6 163/356/6
f 168/357/17 165/358/17 167/359/17
f 165/360/5 162/361/5 161/362/5
f 167/363/15 161/364/15 163/365/15
f 164/366/16 166/367/16 168/368/16
f 170/369/1 171/370/1 169/371/1
f 172/372/5 175/373/5 171/374/5
f 176/375/2 173/376/2 175/373/2
f 174/377/6 169/371/6 173/378/6
f 175/379/4 169/380/4 171/381/4
f 172/382/3 174/383/3 176/384/3
f 178/385/9 179/386/9 177/387/9
f 180/388/5 183/389/5 179/390/5
f 183/391/10 182/392/10 181/393/10
f 181/394/6 178/395/6 177/396/6
f 183/397/11 177/398/11 179/399/11
f 180/400/12 182/401/12 184/402/12
f 186/403/2 187/404/2 185/405/2
f 188/406/6 191/407/6 187/408/6
f 192/409/1 189/410/1 191/407/1
f 190/411/5 185/405/5 189/412/5
f 187/413/4 189/414/4 185/415/4
f 188/416/3 190/417/3 192/418/3
f 194/419/13 195/420/13 193/421/13
f 196/422/6 199/423/6 195/424/6
f 200/425/17 197/426/17 199/427/17
f 197/428/5 194/429/5 193/430/5
f 199/431/15 193/432/15 195/433/15
f 196/434/16 198/435/16 200/436/16
f 202/437/18 203/438/18 201/439/18
f 204/440/1 207/441/1 203/442/1
f 207/443/19 206/444/19 205/445/19
f 205/446/2 202/447/2 201/448/2
f 207/443/20 201/439/20 203/438/20
f 204/449/21 206/450/21 208/451/21
f 210/452/18 211/453/18 209/454/18
f 212/455/1 215/456/1 211/457/1
f 215/458/19 214/459/19 213/460/19
f 213/461/2 210/462/2 209/463/2
f 215/458/20 209/454/20 211/453/20
f 212/464/21 214/465/21 216/466/21
f 218/467/18 219/468/18 217/469/18
f 220/470/1 223/471/1 219/472/1
f 223/473/19 222/474/19 221/475/19
f 221/476/2 218/477/2 217/478/2
f 223/473/20 217/469/20 219/468/20
f 220/479/21 222/480/21 224/481/21
f 226/482/18 227/483/18 225/484/18
f 228/485/1 231/486/1 227/487/1
f 231/488/19 230/489/19 229/490/19
f 229/491/2 226/492/2 225/493/2
f 231/488/20 225/484/20 227/483/20
f 228/494/21 230/495/21 232/496/21
f 234/497/22 235/498/22 233/499/22
f 236/500/2 239/501/2 235/502/2
f 239/503/23 238/504/23 237/505/23
f 237/506/1 234/507/1 233/508/1
f 239/503/24 233/499/24 235/498/24
f 236/509/25 238/510/25 240/511/25
f 242/512/22 243/513/22 241/514/22
f 244/515/2 247/516/2 243/517/2
f 247/518/23 246/519/23 245/520/23
f 245/521/1 242/522/1 241/523/1
f 247/518/24 241/514/24 243/513/24
f 244/524/25 246/525/25 248/526/25
f 250/527/22 251/528/22 249/529/22
f 252/530/2 255/531/2 251/532/2
f 255/533/23 254/534/23 253/535/23
f 253/536/1 250/537/1 249/538/1
f 255/533/24 249/529/24 251/528/24
f 252/539/26 254/540/26 256/541/26
f 258/542/22 259/543/22 257/544/22
f 260/545/2 263/546/2 259/547/2
f 264/548/23 261/549/23 263/550/23
f 261/551/1 258/552/1 257/553/1
f 263/550/24 257/544/24 259/543/24
f 260/554/25 262/555/25 264/556/25
f 266/557/1 267/558/1 265/559/1
f 268/560/5 271/561/5 267/562/5
f 272/563/2 269/564/2 271/561/2
f 270/565/6 265/559/6 269/566/6
f 271/567/4 265/568/4 267/569/4
f 268/570/3 270/571/3 272/572/3
f 274/573/2 275/574/2 273/575/2
f 276/576/6 279/577/6 275/578/6
f 280/579/1 277/580/1 279/577/1
f 278/581/5 273/575/5 277/582/5
f 279/583/4 273/584/4 275/585/4
f 276/586/3 278/587/3 280/588/3
f 282/589/1 283/590/1 281/591/1
f 284/592/5 287/593/5 283/594/5
f 288/595/2 285/596/2 287/593/2
f 286/597/6 281/591/6 285/598/6
f 287/599/4 281/600/4 283/601/4
f 284/602/3 286/603/3 288/604/3
f 290/605/2 291/606/2 289/607/2
f 292/608/6 295/609/6 291/610/6
f 296/611/1 293/612/1 295/609/1
f 294/613/5 289/607/5 293/614/5
f 295/615/4 289/616/4 291/617/4
f 296/618/3 290/619/3 294/620/3
f 298/621/9 299/622/9 297/623/9
f 300/624/5 303/625/5 299/626/5
f 304/627/10 301/628/10 303/629/10
f 301/630/6 298/631/6 297/632/6
f 303/633/11 297/634/11 299/635/11
f 300/636/12 302/637/12 304/638/12
f 306/639/13 307/640/13 305/641/13
f 308/642/6 311/643/6 307/644/6
f 312/645/17 309/646/17 311/647/17
f 309/648/5 306/649/5 305/650/5
f 311/651/15 305/652/15 307/653/15
f 308/654/16 310/655/16 312/656/16
f 327/657/3 337/658/3 334/659/3
f 337/660/6 320/661/6 338/662/6
f 329/663/1 318/664/1 321/665/1
f 330/666/4 338/667/4 342/668/4
f 326/669/2 316/670/2 330/671/2
f 339/672/5 314/673/5 336/674/5
f 336/675/2 350/676/2 339/677/2
f 342/668/4 320/678/4 323/679/4
f 315/680/2 344/681/2 316/670/2
f 334/659/3 315/682/3 326/683/3
f 339/684/3 324/685/3 313/686/3
f 333/687/3 325/688/3 324/689/3
f 335/690/3 326/691/3 325/692/3
f 336/693/4 321/694/4 318/695/4
f 340/696/4 322/697/4 321/698/4
f 341/699/4 323/700/4 322/701/4
f 313/702/2 332/703/2 314/704/2
f 324/705/2 331/706/2 332/703/2
f 325/707/2 330/671/2 331/706/2
f 314/708/4 340/709/4 336/693/4
f 340/696/4 331/710/4 341/711/4
f 341/699/4 330/712/4 342/713/4
f 319/714/1 323/715/1 320/716/1
f 327/717/1 322/718/1 323/715/1
f 328/719/1 321/665/1 322/718/1
f 317/720/3 333/721/3 339/722/3
f 333/687/3 328/723/3 335/724/3
f 335/690/3 327/725/3 334/726/3
f 343/727/6 345/728/6 344/729/6
f 338/730/1 346/731/1 337/732/1
f 337/733/3 343/734/3 315/735/3
f 316/736/4 345/737/4 338/738/4
f 349/739/5 347/740/5 348/741/5
f 339/742/3 349/743/3 317/744/3
f 317/745/1 348/746/1 318/664/1
f 318/747/4 347/748/4 336/749/4
f 352/750/1 353/751/1 351/752/1
f 354/753/5 357/754/5 353/755/5
f 358/756/2 355/757/2 357/754/2
f 356/758/6 351/752/6 355/759/6
f 357/760/4 351/761/4 353/762/4
f 354/763/3 356/764/3 358/765/3
f 360/766/1 361/767/1 359/768/1
f 362/769/5 365/770/5 361/771/5
f 366/772/2 363/773/2 365/774/2
f 364/775/6 359/776/6 363/777/6
f 365/778/4 359/779/4 361/780/4
f 362/781/3 364/782/3 366/783/3
f 368/784/1 369/785/1 367/786/1
f 370/787/5 373/788/5 369/789/5
f 374/790/2 371/791/2 373/788/2
f 372/792/6 367/786/6 371/793/6
f 373/794/4 367/795/4 369/796/4
f 370/797/3 372/798/3 374/799/3
f 376/800/1 377/801/1 375/802/1
f 378/803/5 381/804/5 377/805/5
f 382/806/2 379/807/2 381/804/2
f 380/808/6 375/802/6 379/809/6
f 381/810/4 375/811/4 377/812/4
f 378/813/3 380/814/3 382/815/3
f 384/816/1 385/817/1 383/818/1
f 386/819/5 389/820/5 385/821/5
f 390/822/2 387/823/2 389/820/2
f 388/824/6 383/818/6 387/825/6
f 389/826/4 383/827/4 385/828/4
f 386/829/3 388/830/3 390/831/3
f 404/832/1 393/833/1 399/834/1
f 394/835/5 397/836/5 393/837/5
f 410/838/2 395/839/2 405/840/2
f 396/841/6 391/842/6 395/843/6
f 405/840/4 391/844/4 401/845/4
f 402/846/3 396/847/3 410/848/3
f 394/849/3 408/850/3 398/851/3
f 408/852/3 403/853/3 409/854/3
f 409/855/3 402/856/3 410/857/3
f 397/858/4 399/859/4 393/860/4
f 399/861/4 406/862/4 400/863/4
f 400/864/4 405/865/4 401/866/4
f 398/867/2 407/868/2 397/858/2
f 408/869/2 406/862/2 407/870/2
f 409/871/2 405/865/2 406/872/2
f 392/873/1 401/874/1 391/875/1
f 402/856/1 400/876/1 401/877/1
f 403/853/1 399/878/1 400/879/1
f 412/880/1 413/881/1 411/882/1
f 414/883/5 417/884/5 413/885/5
f 418/886/2 415/887/2 417/888/2
f 416/889/6 411/890/6 415/891/6
f 417/892/4 411/893/4 413/894/4
f 414/895/3 416/896/3 418/897/3
f 420/898/1 421/899/1 419/900/1
f 422/901/5 425/902/5 421/903/5
f 426/904/2 423/905/2 425/906/2
f 424/907/6 419/908/6 423/909/6
f 425/910/4 419/911/4 421/912/4
f 422/913/3 424/914/3 426/915/3
f 428/916/1 429/917/1 427/918/1
f 430/919/5 433/920/5 429/921/5
f 434/922/2 431/923/2 433/924/2
f 432/925/6 427/926/6 431/927/6
f 433/928/4 427/929/4 429/930/4
f 430/931/3 432/932/3 434/933/3
f 436/934/1 437/935/1 435/936/1
f 438/937/5 441/938/5 437/939/5
f 442/940/2 439/941/2 441/942/2
f 440/943/6 435/944/6 439/945/6
f 441/946/4 435/947/4 437/948/4
f 438/949/3 440/950/3 442/951/3
f 444/952/1 445/953/1 443/954/1
f 446/955/5 449/956/5 445/957/5
f 450/958/2 447/959/2 449/960/2
f 448/961/6 443/962/6 447/963/6
f 449/964/4 443/965/4 445/966/4
f 446/967/3 448/968/3 450/969/3
f 452/970/1 453/971/1 451/972/1
f 454/973/5 457/974/5 453/975/5
f 458/976/2 455/977/2 457/978/2
f 456/979/6 451/980/6 455/981/6
f 457/982/4 451/983/4 453/984/4
f 454/985/3 456/986/3 458/987/3
f 460/988/1 461/989/1 459/990/1
f 462/991/5 465/992/5 461/993/5
f 466/994/2 463/995/2 465/996/2
f 464/997/6 459/998/6 463/999/6
f 465/1000/4 459/1001/4 461/1002/4
f 462/1003/3 464/1004/3 466/1005/3
f 468/1006/1 469/1007/1 467/1008/1
f 470/1009/5 473/1010/5 469/1011/5
f 474/1012/2 471/1013/2 473/1014/2
f 472/1015/6 467/1016/6 471/1017/6
f 473/1018/4 467/1019/4 469/1020/4
f 470/1021/3 472/1022/3 474/1023/3
f 480/1024/2 477/1025/2 479/1026/2
f 475/1027/6 483/1028/6 481/1029/6
f 476/1030/27 478/1031/27 480/1032/27
f 483/1033/1 476/1034/1 482/1035/1
f 484/1036/28 477/1037/28 481/1038/28
f 476/1039/5 480/1040/5 479/1041/5
f 483/1042/4 484/1036/4 481/1038/4
f 490/1043/2 487/1044/2 489/1045/2
f 485/1046/6 493/1047/6 491/1048/6
f 486/1049/27 488/1050/27 490/1051/27
f 493/1052/1 486/1053/1 492/1054/1
f 494/1055/28 487/1056/28 491/1057/28
f 486/1058/5 490/1059/5 489/1060/5
f 493/1061/4 494/1055/4 491/1057/4
f 496/1062/2 497/1063/2 495/1064/2
f 498/1065/6 501/1066/6 497/1067/6
f 502/1068/1 499/1069/1 501/1070/1
f 500/1071/5 495/1072/5 499/1073/5
f 501/1074/4 495/1075/4 497/1076/4
f 502/1077/3 496/1078/3 500/1079/3
f 504/1080/2 505/1081/2 503/1082/2
f 506/1083/6 509/1084/6 505/1085/6
f 510/1086/1 507/1087/1 509/1088/1
f 508/1089/5 503/1090/5 507/1091/5
f 505/1092/4 507/1093/4 503/1094/4
f 506/1095/3 508/1096/3 510/1097/3
f 512/1098/2 513/1099/2 511/1100/2
f 514/1101/6 517/1102/6 513/1103/6
f 518/1104/1 515/1105/1 517/1106/1
f 516/1107/5 511/1108/5 515/1109/5
f 517/1110/4 511/1111/4 513/1112/4
f 514/1113/3 516/1114/3 518/1115/3
f 520/1116/2 521/1117/2 519/1118/2
f 522/1119/6 525/1120/6 521/1121/6
f 526/1122/1 523/1123/1 525/1124/1
f 524/1125/5 519/1126/5 523/1127/5
f 525/1128/4 519/1129/4 521/1130/4
f 526/1131/3 520/1132/3 524/1133/3
f 528/1134/2 529/1135/2 527/1136/2
f 530/1137/6 533/1138/6 529/1139/6
f 534/1140/1 531/1141/1 533/1142/1
f 532/1143/5 527/1144/5 531/1145/5
f 529/1146/4 531/1147/4 527/1148/4
f 530/1149/3 532/1150/3 534/1151/3
f 536/1152/2 537/1153/2 535/1154/2
f 538/1155/6 541/1156/6 537/1157/6
f 542/1158/1 539/1159/1 541/1160/1
f 540/1161/5 535/1162/5 539/1163/5
f 541/1164/4 535/1165/4 537/1166/4
f 538/1167/3 540/1168/3 542/1169/3
f 544/1170/2 545/1171/2 543/1172/2
f 546/1173/6 549/1174/6 545/1175/6
f 550/1176/1 547/1177/1 549/1178/1
f 548/1179/5 543/1180/5 547/1181/5
f 549/1182/4 543/1183/4 545/1184/4
f 550/1185/3 544/1186/3 548/1187/3
f 552/1188/2 553/1189/2 551/1190/2
f 554/1191/6 557/1192/6 553/1193/6
f 558/1194/1 555/1195/1 557/1196/1
f 556/1197/5 551/1198/5 555/1199/5
f 557/1200/4 551/1201/4 553/1202/4
f 558/1203/3 552/1204/3 556/1205/3
f 564/1206/1 561/1207/1 563/1208/1
f 559/1209/5 567/1210/5 565/1211/5
f 560/1212/29 562/1213/29 564/1214/29
f 567/1215/2 560/1216/2 566/1217/2
f 568/1218/30 561/1219/30 565/1220/30
f 560/1221/6 564/1222/6 563/1223/6
f 567/1224/4 568/1218/4 565/1220/4
f 574/1225/1 571/1226/1 573/1227/1
f 569/1228/5 577/1229/5 575/1230/5
f 570/1231/29 572/1232/29 574/1233/29
f 577/1234/2 570/1235/2 576/1236/2
f 578/1237/30 571/1238/30 575/1239/30
f 570/1240/6 574/1241/6 573/1242/6
f 577/1243/4 578/1237/4 575/1239/4
f 580/1244/31 581/1245/31 579/1246/31
f 582/1247/32 585/1248/32 581/1249/32
f 586/1250/33 583/1251/33 585/1252/33
f 583/1253/34 580/1254/34 579/1255/34
f 585/1256/35 579/1257/35 581/1258/35
f 582/1259/36 584/1260/36 586/1261/36
f 588/1262/37 589/1263/37 587/1264/37
f 590/1265/38 593/1266/38 589/1267/38
f 593/1268/39 592/1269/39 591/1270/39
f 591/1271/40 588/1272/40 587/1273/40
f 589/1274/41 591/1275/41 587/1276/41
f 590/1277/42 592/1278/42 594/1279/42
f 597/1280/2 595/1281/2 596/1282/2
f 601/1283/2 599/1284/2 600/1285/2
f 605/1286/2 603/1287/2 604/1288/2
f 609/1289/2 607/1290/2 608/1291/2
f 143/311/4 141/1292/4 137/312/4
f 155/345/4 159/1293/4 157/346/4
f 175/379/4 173/1294/4 169/380/4
f 187/413/4 191/1295/4 189/414/4
f 372/792/6 368/784/6 367/786/6
f 536/1152/2 538/1296/2 537/1153/2
f 26/1/1 5/1297/1 6/2/1
f 33/4/2 3/1298/2 4/5/2
f 28/7/3 31/1299/3 29/8/3
f 12/10/4 38/1300/4 40/11/4
f 6/13/4 14/1301/4 27/14/4
f 24/16/3 23/1302/3 15/17/3
f 33/19/3 1/1303/3 9/20/3
f 26/22/3 7/1304/3 15/23/3
f 18/25/3 20/1305/3 9/26/3
f 4/28/4 12/1306/4 36/29/4
f 17/31/4 2/1307/4 10/32/4
f 17/34/5 18/1308/5 1/35/5
f 20/37/6 19/1309/6 10/38/6
f 5/40/7 13/1310/7 14/41/7
f 23/43/5 21/1311/5 16/44/5
f 22/46/6 24/1312/6 7/47/6
f 3/49/8 11/1313/8 12/50/8
f 22/52/4 8/1314/4 16/53/4
f 5/55/3 26/22/3 28/24/3
f 25/15/4 27/14/4 16/57/4
f 27/59/2 28/1315/2 15/60/2
f 7/62/1 26/1/1 25/3/1
f 30/64/2 29/1316/2 31/65/2
f 27/67/6 32/1317/6 31/68/6
f 14/70/4 30/1318/4 32/71/4
f 13/73/5 29/1319/5 30/74/5
f 34/30/4 36/29/4 10/76/4
f 3/78/3 33/19/3 35/21/3
f 36/80/1 35/1320/1 9/81/1
f 1/83/2 33/4/2 34/6/2
f 38/85/1 37/1321/1 39/86/1
f 11/88/6 37/1322/6 38/89/6
f 36/91/5 40/1323/5 39/92/5
f 35/94/3 39/1324/3 37/95/3
f 42/97/1 44/1325/1 43/98/1
f 44/100/5 48/103/5 47/101/5
f 48/103/2 46/1326/2 45/104/2
f 46/105/6 42/97/6 41/99/6
f 47/107/4 45/1327/4 41/108/4
f 44/110/3 42/1328/3 46/111/3
f 50/113/9 52/1329/9 51/114/9
f 52/116/5 56/1330/5 55/117/5
f 56/119/10 54/1331/10 53/120/10
f 53/122/6 54/1332/6 50/123/6
f 55/125/11 53/1333/11 49/126/11
f 52/128/12 50/1334/12 54/129/12
f 58/131/2 60/1335/2 59/132/2
f 60/134/6 64/137/6 63/135/6
f 64/137/1 62/1336/1 61/138/1
f 62/139/5 58/131/5 57/133/5
f 63/141/4 61/1337/4 57/142/4
f 60/144/3 58/1338/3 62/145/3
f 65/147/13 66/1339/13 68/148/13
f 68/150/6 72/1340/6 71/151/6
f 72/153/17 70/1341/17 69/154/17
f 69/156/5 70/1342/5 66/157/5
f 71/159/15 69/1343/15 65/160/15
f 68/162/16 66/1344/16 70/163/16
f 74/165/1 76/1345/1 75/166/1
f 76/168/5 80/171/5 79/169/5
f 80/171/2 78/1346/2 77/172/2
f 78/173/6 74/165/6 73/167/6
f 79/175/4 77/1347/4 73/176/4
f 76/178/3 74/1348/3 78/179/3
f 82/181/9 84/1349/9 83/182/9
f 84/184/5 88/1350/5 87/185/5
f 88/187/10 86/1351/10 85/188/10
f 85/190/6 86/1352/6 82/191/6
f 87/193/11 85/1353/11 81/194/11
f 84/196/12 82/1354/12 86/197/12
f 90/199/2 92/1355/2 91/200/2
f 92/202/6 96/205/6 95/203/6
f 96/205/1 94/1356/1 93/206/1
f 94/207/5 90/199/5 89/201/5
f 95/209/4 93/1357/4 89/210/4
f 92/212/3 90/1358/3 94/213/3
f 97/215/13 98/1359/13 100/216/13
f 100/218/6 104/1360/6 103/219/6
f 104/221/14 102/1361/14 101/222/14
f 101/224/5 102/1362/5 98/225/5
f 103/227/15 101/1363/15 97/228/15
f 100/230/16 98/1364/16 102/231/16
f 106/233/1 108/1365/1 107/234/1
f 108/236/5 112/239/5 111/237/5
f 112/239/2 110/1366/2 109/240/2
f 110/241/6 106/233/6 105/235/6
f 111/243/4 109/1367/4 105/244/4
f 108/246/3 106/1368/3 110/247/3
f 113/249/9 114/1369/9 116/250/9
f 116/252/5 120/1370/5 119/253/5
f 119/255/10 120/1371/10 118/256/10
f 117/258/6 118/1372/6 114/259/6
f 119/261/11 117/1373/11 113/262/11
f 116/264/12 114/1374/12 118/265/12
f 122/267/2 124/1375/2 123/268/2
f 124/270/6 128/273/6 127/271/6
f 128/273/1 126/1376/1 125/274/1
f 126/275/5 122/267/5 121/269/5
f 123/277/4 127/1377/4 125/278/4
f 124/280/3 122/1378/3 126/281/3
f 130/283/13 132/1379/13 131/284/13
f 132/286/6 136/1380/6 135/287/6
f 136/289/17 134/1381/17 133/290/17
f 133/292/5 134/1382/5 130/293/5
f 135/295/15 133/1383/15 129/296/15
f 132/298/16 130/1384/16 134/299/16
f 138/301/1 140/1385/1 139/302/1
f 140/304/5 144/307/5 143/305/5
f 144/307/2 142/1386/2 141/308/2
f 142/309/6 138/301/6 137/303/6
f 140/314/3 138/1387/3 142/315/3
f 146/317/9 148/1388/9 147/318/9
f 148/320/5 152/1389/5 151/321/5
f 152/323/10 150/1390/10 149/324/10
f 149/326/6 150/1391/6 146/327/6
f 151/329/11 149/1392/11 145/330/11
f 148/332/12 146/1393/12 150/333/12
f 154/335/2 156/1394/2 155/336/2
f 156/338/6 160/341/6 159/339/6
f 160/341/1 158/1395/1 157/342/1
f 158/343/5 154/335/5 153/337/5
f 156/348/3 154/1396/3 158/349/3
f 162/351/13 164/1397/13 163/352/13
f 164/354/6 168/1398/6 167/355/6
f 168/357/17 166/1399/17 165/358/17
f 165/360/5 166/1400/5 162/361/5
f 167/363/15 165/1401/15 161/364/15
f 164/366/16 162/1402/16 166/367/16
f 170/369/1 172/1403/1 171/370/1
f 172/372/5 176/375/5 175/373/5
f 176/375/2 174/1404/2 173/376/2
f 174/377/6 170/369/6 169/371/6
f 172/382/3 170/1405/3 174/383/3
f 178/385/9 180/1406/9 179/386/9
f 180/388/5 184/1407/5 183/389/5
f 183/391/10 184/1408/10 182/392/10
f 181/394/6 182/1409/6 178/395/6
f 183/397/11 181/1410/11 177/398/11
f 180/400/12 178/1411/12 182/401/12
f 186/403/2 188/1412/2 187/404/2
f 188/406/6 192/409/6 191/407/6
f 192/409/1 190/1413/1 189/410/1
f 190/411/5 186/403/5 185/405/5
f 188/416/3 186/1414/3 190/417/3
f 194/419/13 196/1415/13 195/420/13
f 196/422/6 200/1416/6 199/423/6
f 200/425/17 198/1417/17 197/426/17
f 197/428/5 198/1418/5 194/429/5
f 199/431/15 197/1419/15 193/432/15
f 196/434/16 194/1420/16 198/435/16
f 202/437/18 204/1421/18 203/438/18
f 204/440/1 208/1422/1 207/441/1
f 207/443/19 208/1423/19 206/444/19
f 205/446/2 206/1424/2 202/447/2
f 207/443/20 205/445/20 201/439/20
f 204/449/43 202/1425/43 206/450/43
f 210/452/18 212/1426/18 211/453/18
f 212/455/1 216/1427/1 215/456/1
f 215/458/19 216/1428/19 214/459/19
f 213/461/2 214/1429/2 210/462/2
f 215/458/20 213/460/20 209/454/20
f 212/464/43 210/1430/43 214/465/43
f 218/467/18 220/1431/18 219/468/18
f 220/470/1 224/1432/1 223/471/1
f 223/473/19 224/1433/19 222/474/19
f 221/476/2 222/1434/2 218/477/2
f 223/473/20 221/475/20 217/469/20
f 220/479/43 218/1435/43 222/480/43
f 226/482/18 228/1436/18 227/483/18
f 228/485/1 232/1437/1 231/486/1
f 231/488/19 232/1438/19 230/489/19
f 229/491/2 230/1439/2 226/492/2
f 231/488/20 229/490/20 225/484/20
f 228/494/43 226/1440/43 230/495/43
f 234/497/22 236/1441/22 235/498/22
f 236/500/2 240/1442/2 239/501/2
f 239/503/23 240/1443/23 238/504/23
f 237/506/1 238/1444/1 234/507/1
f 239/503/24 237/505/24 233/499/24
f 236/509/26 234/1445/26 238/510/26
f 242/512/22 244/1446/22 243/513/22
f 244/515/2 248/1447/2 247/516/2
f 247/518/23 248/1448/23 246/519/23
f 245/521/1 246/1449/1 242/522/1
f 247/518/24 245/520/24 241/514/24
f 244/524/25 242/1450/25 246/525/25
f 250/527/22 252/1451/22 251/528/22
f 252/530/2 256/1452/2 255/531/2
f 255/533/23 256/1453/23 254/534/23
f 253/536/1 254/1454/1 250/537/1
f 255/533/24 253/535/24 249/529/24
f 252/539/25 250/1455/25 254/540/25
f 258/542/22 260/1456/22 259/543/22
f 260/545/2 264/1457/2 263/546/2
f 264/548/23 262/1458/23 261/549/23
f 261/551/1 262/1459/1 258/552/1
f 263/550/24 261/549/24 257/544/24
f 260/554/25 258/1460/25 262/555/25
f 266/557/1 268/1461/1 267/558/1
f 268/560/5 272/563/5 271/561/5
f 272/563/2 270/1462/2 269/564/2
f 270/565/6 266/557/6 265/559/6
f 271/567/4 269/1463/4 265/568/4
f 268/570/3 266/1464/3 270/571/3
f 274/573/2 276/1465/2 275/574/2
f 276/576/6 280/579/6 279/577/6
f 280/579/1 278/1466/1 277/580/1
f 278/581/5 274/573/5 273/575/5
f 279/583/4 277/1467/4 273/584/4
f 276/586/3 274/1468/3 278/587/3
f 282/589/1 284/1469/1 283/590/1
f 284/592/5 288/595/5 287/593/5
f 288/595/2 286/1470/2 285/596/2
f 286/597/6 282/589/6 281/591/6
f 287/599/4 285/1471/4 281/600/4
f 284/602/3 282/1472/3 286/603/3
f 290/605/2 292/1473/2 291/606/2
f 292/608/6 296/611/6 295/609/6
f 296/611/1 294/1474/1 293/612/1
f 294/613/5 290/605/5 289/607/5
f 295/615/4 293/1475/4 289/616/4
f 296/618/3 292/1476/3 290/619/3
f 298/621/9 300/1477/9 299/622/9
f 300/624/5 304/1478/5 303/625/5
f 304/627/44 302/1479/44 301/628/44
f 301/630/6 302/1480/6 298/631/6
f 303/633/11 301/1481/11 297/634/11
f 300/636/12 298/1482/12 302/637/12
f 306/639/13 308/1483/13 307/640/13
f 308/642/6 312/1484/6 311/643/6
f 312/645/17 310/1485/17 309/646/17
f 309/648/5 310/1486/5 306/649/5
f 311/651/15 309/1487/15 305/652/15
f 308/654/16 306/1488/16 310/655/16
f 327/657/3 319/1489/3 337/658/3
f 337/660/6 319/1490/6 320/661/6
f 329/663/1 317/745/1 318/664/1
f 330/666/4 316/1491/4 338/667/4
f 326/669/2 315/680/2 316/670/2
f 339/672/5 313/1492/5 314/673/5
f 336/675/2 347/1493/2 350/676/2
f 342/668/4 338/667/4 320/678/4
f 315/680/2 343/1494/2 344/681/2
f 334/659/3 337/658/3 315/682/3
f 339/684/3 333/1495/3 324/685/3
f 333/687/3 335/724/3 325/688/3
f 335/690/3 334/726/3 326/691/3
f 336/693/4 340/709/4 321/694/4
f 340/696/4 341/711/4 322/697/4
f 341/699/4 342/713/4 323/700/4
f 313/702/2 324/705/2 332/703/2
f 324/705/2 325/707/2 331/706/2
f 325/707/2 326/669/2 330/671/2
f 314/708/4 332/1496/4 340/709/4
f 340/696/4 332/1497/4 331/710/4
f 341/699/4 331/1498/4 330/712/4
f 319/714/1 327/717/1 323/715/1
f 327/717/1 328/719/1 322/718/1
f 328/719/1 329/663/1 321/665/1
f 317/720/3 329/1499/3 333/721/3
f 333/687/3 329/1500/3 328/723/3
f 335/690/3 328/1501/3 327/725/3
f 343/727/6 346/1502/6 345/728/6
f 338/730/1 345/1503/1 346/731/1
f 337/733/3 346/1504/3 343/734/3
f 316/736/4 344/1505/4 345/737/4
f 349/739/5 350/1506/5 347/740/5
f 339/742/3 350/1507/3 349/743/3
f 317/745/1 349/1508/1 348/746/1
f 318/747/4 348/1509/4 347/748/4
f 352/750/1 354/1510/1 353/751/1
f 354/753/5 358/756/5 357/754/5
f 358/756/2 356/1511/2 355/757/2
f 356/758/6 352/750/6 351/752/6
f 357/760/4 355/1512/4 351/761/4
f 354/763/3 352/1513/3 356/764/3
f 360/766/1 362/1514/1 361/767/1
f 362/769/5 366/1515/5 365/770/5
f 366/772/2 364/1516/2 363/773/2
f 364/775/6 360/1517/6 359/776/6
f 365/778/4 363/1518/4 359/779/4
f 362/781/3 360/1519/3 364/782/3
f 368/784/1 370/1520/1 369/785/1
f 370/787/5 374/790/5 373/788/5
f 374/790/2 372/1521/2 371/791/2
f 373/794/4 371/1522/4 367/795/4
f 370/797/3 368/1523/3 372/798/3
f 376/800/1 378/1524/1 377/801/1
f 378/803/5 382/806/5 381/804/5
f 382/806/2 380/1525/2 379/807/2
f 380/808/6 376/800/6 375/802/6
f 381/810/4 379/1526/4 375/811/4
f 378/813/3 376/1527/3 380/814/3
f 384/816/1 386/1528/1 385/817/1
f 386/819/5 390/822/5 389/820/5
f 390/822/2 388/1529/2 387/823/2
f 388/824/6 384/816/6 383/818/6
f 389/826/4 387/1530/4 383/827/4
f 386/829/3 384/1531/3 388/830/3
f 404/832/1 394/849/1 393/833/1
f 394/835/5 398/1532/5 397/836/5
f 410/838/2 396/1533/2 395/839/2
f 396/841/6 392/1534/6 391/842/6
f 405/840/4 395/839/4 391/844/4
f 402/846/3 392/873/3 396/847/3
f 394/849/3 404/832/3 408/850/3
f 408/852/3 404/1535/3 403/853/3
f 409/855/3 403/1536/3 402/856/3
f 397/858/4 407/868/4 399/859/4
f 399/861/4 407/870/4 406/862/4
f 400/864/4 406/872/4 405/865/4
f 398/867/2 408/1537/2 407/868/2
f 408/869/2 409/1538/2 406/862/2
f 409/871/2 410/1539/2 405/865/2
f 392/873/1 402/846/1 401/874/1
f 402/856/1 403/1536/1 400/876/1
f 403/853/1 404/1535/1 399/878/1
f 412/880/1 414/1540/1 413/881/1
f 414/883/5 418/1541/5 417/884/5
f 418/886/2 416/1542/2 415/887/2
f 416/889/6 412/1543/6 411/890/6
f 417/892/4 415/1544/4 411/893/4
f 414/895/3 412/1545/3 416/896/3
f 420/898/1 422/1546/1 421/899/1
f 422/901/5 426/1547/5 425/902/5
f 426/904/2 424/1548/2 423/905/2
f 424/907/6 420/1549/6 419/908/6
f 425/910/4 423/1550/4 419/911/4
f 422/913/3 420/1551/3 424/914/3
f 428/916/1 430/1552/1 429/917/1
f 430/919/5 434/1553/5 433/920/5
f 434/922/2 432/1554/2 431/923/2
f 432/925/6 428/1555/6 427/926/6
f 433/928/4 431/1556/4 427/929/4
f 430/931/3 428/1557/3 432/932/3
f 436/934/1 438/1558/1 437/935/1
f 438/937/5 442/1559/5 441/938/5
f 442/940/2 440/1560/2 439/941/2
f 440/943/6 436/1561/6 435/944/6
f 441/946/4 439/1562/4 435/947/4
f 438/949/3 436/1563/3 440/950/3
f 444/952/1 446/1564/1 445/953/1
f 446/955/5 450/1565/5 449/956/5
f 450/958/2 448/1566/2 447/959/2
f 448/961/6 444/1567/6 443/962/6
f 449/964/4 447/1568/4 443/965/4
f 446/967/3 444/1569/3 448/968/3
f 452/970/1 454/1570/1 453/971/1
f 454/973/5 458/1571/5 457/974/5
f 458/976/2 456/1572/2 455/977/2
f 456/979/6 452/1573/6 451/980/6
f 457/982/4 455/1574/4 451/983/4
f 454/985/3 452/1575/3 456/986/3
f 460/988/1 462/1576/1 461/989/1
f 462/991/5 466/1577/5 465/992/5
f 466/994/2 464/1578/2 463/995/2
f 464/997/6 460/1579/6 459/998/6
f 465/1000/4 463/1580/4 459/1001/4
f 462/1003/3 460/1581/3 464/1004/3
f 468/1006/1 470/1582/1 469/1007/1
f 470/1009/5 474/1583/5 473/1010/5
f 474/1012/2 472/1584/2 471/1013/2
f 472/1015/6 468/1585/6 467/1016/6
f 473/1018/4 471/1586/4 467/1019/4
f 470/1021/3 468/1587/3 472/1022/3
f 480/1024/2 478/1588/2 477/1025/2
f 481/1029/6 477/1589/6 475/1027/6
f 477/1589/6 478/1590/6 475/1027/6
f 476/1030/45 475/1591/45 478/1031/45
f 483/1033/1 475/1592/1 476/1034/1
f 484/1036/28 479/1593/28 477/1037/28
f 479/1041/5 484/1594/5 476/1039/5
f 484/1594/5 482/1595/5 476/1039/5
f 483/1042/4 482/1596/4 484/1036/4
f 490/1043/2 488/1597/2 487/1044/2
f 491/1048/6 487/1598/6 485/1046/6
f 487/1598/6 488/1599/6 485/1046/6
f 486/1049/27 485/1600/27 488/1050/27
f 493/1052/1 485/1601/1 486/1053/1
f 494/1055/28 489/1602/28 487/1056/28
f 489/1060/5 494/1603/5 486/1058/5
f 494/1603/5 492/1604/5 486/1058/5
f 493/1061/4 492/1605/4 494/1055/4
f 496/1062/2 498/1606/2 497/1063/2
f 498/1065/6 502/1607/6 501/1066/6
f 502/1068/1 500/1608/1 499/1069/1
f 500/1071/5 496/1609/5 495/1072/5
f 501/1074/4 499/1610/4 495/1075/4
f 502/1077/3 498/1611/3 496/1078/3
f 504/1080/2 506/1612/2 505/1081/2
f 506/1083/6 510/1613/6 509/1084/6
f 510/1086/1 508/1614/1 507/1087/1
f 508/1089/5 504/1615/5 503/1090/5
f 505/1092/4 509/1616/4 507/1093/4
f 506/1095/3 504/1617/3 508/1096/3
f 512/1098/2 514/1618/2 513/1099/2
f 514/1101/6 518/1619/6 517/1102/6
f 518/1104/1 516/1620/1 515/1105/1
f 516/1107/5 512/1621/5 511/1108/5
f 517/1110/4 515/1622/4 511/1111/4
f 514/1113/3 512/1623/3 516/1114/3
f 520/1116/2 522/1624/2 521/1117/2
f 522/1119/6 526/1625/6 525/1120/6
f 526/1122/1 524/1626/1 523/1123/1
f 524/1125/5 520/1627/5 519/1126/5
f 525/1128/4 523/1628/4 519/1129/4
f 526/1131/3 522/1629/3 520/1132/3
f 528/1134/2 530/1630/2 529/1135/2
f 530/1137/6 534/1631/6 533/1138/6
f 534/1140/1 532/1632/1 531/1141/1
f 532/1143/5 528/1633/5 527/1144/5
f 529/1146/4 533/1634/4 531/1147/4
f 530/1149/3 528/1635/3 532/1150/3
f 538/1155/6 542/1636/6 541/1156/6
f 542/1158/1 540/1637/1 539/1159/1
f 540/1161/5 536/1638/5 535/1162/5
f 541/1164/4 539/1639/4 535/1165/4
f 538/1167/3 536/1640/3 540/1168/3
f 544/1170/2 546/1641/2 545/1171/2
f 546/1173/6 550/1642/6 549/1174/6
f 550/1176/1 548/1643/1 547/1177/1
f 548/1179/5 544/1644/5 543/1180/5
f 549/1182/4 547/1645/4 543/1183/4
f 550/1185/3 546/1646/3 544/1186/3
f 552/1188/2 554/1647/2 553/1189/2
f 554/1191/6 558/1648/6 557/1192/6
f 558/1194/1 556/1649/1 555/1195/1
f 556/1197/5 552/1650/5 551/1198/5
f 557/1200/4 555/1651/4 551/1201/4
f 558/1203/3 554/1652/3 552/1204/3
f 564/1206/1 562/1653/1 561/1207/1
f 565/1211/5 561/1654/5 559/1209/5
f 561/1654/5 562/1655/5 559/1209/5
f 560/1212/29 559/1656/29 562/1213/29
f 567/1215/2 559/1657/2 560/1216/2
f 568/1218/30 563/1658/30 561/1219/30
f 563/1223/6 568/1659/6 560/1221/6
f 568/1659/6 566/1660/6 560/1221/6
f 567/1224/4 566/1661/4 568/1218/4
f 574/1225/1 572/1662/1 571/1226/1
f 575/1230/5 571/1663/5 569/1228/5
f 571/1663/5 572/1664/5 569/1228/5
f 570/1231/29 569/1665/29 572/1232/29
f 577/1234/2 569/1666/2 570/1235/2
f 578/1237/30 573/1667/30 571/1238/30
f 573/1242/6 578/1668/6 570/1240/6
f 578/1668/6 576/1669/6 570/1240/6
f 577/1243/4 576/1670/4 578/1237/4
f 580/1244/31 582/1671/31 581/1245/31
f 582/1247/32 586/1672/32 585/1248/32
f 586/1250/33 584/1673/33 583/1251/33
f 583/1253/34 584/1674/34 580/1254/34
f 585/1256/35 583/1675/35 579/1257/35
f 582/1259/36 580/1676/36 584/1260/36
f 588/1262/37 590/1677/37 589/1263/37
f 590/1265/38 594/1678/38 593/1266/38
f 593/1268/39 594/1679/39 592/1269/39
f 591/1271/40 592/1680/40 588/1272/40
f 589/1274/46 593/1681/46 591/1275/46
f 590/1277/47 588/1682/47 592/1278/47
f 597/1280/2 598/1683/2 595/1281/2
f 601/1283/2 602/1684/2 599/1284/2
f 605/1286/2 606/1685/2 603/1287/2
f 609/1289/2 610/1686/2 607/1290/2
